<svg width="16" height="16" xmlns="http://www.w3.org/2000/svg" xmlns:svg="http://www.w3.org/2000/svg">
 <g>
  <title>Logo</title>
  <path fill="#ffffff" d="m2.395646,3.392742c0.2,1.227936 0.4,1.511306 0.4,2.739243c0,0.755653 -1.5,1.41685 -1.5,1.41685l0,0.944566c0,0 1.5,0.661196 1.5,1.41685c0,1.227936 -0.2,1.511306 -0.4,2.739243c-0.3,1.983589 0.8,2.928156 1.8,2.928156s2.1,0 2.1,0l0,-1.889133c0,0 -1.8,0.188913 -1.8,-0.944566c0,-0.85011 0.2,-0.85011 0.4,-2.739243c0.1,-0.85011 -0.5,-1.511306 -1.1,-1.983589c0.6,-0.472283 1.2,-1.039023 1.1,-1.889133c-0.3,-1.889133 -0.4,-1.889133 -0.4,-2.739243c0,-1.13348 1.8,-1.039023 1.8,-1.039023l0,-1.889133c0,0 -1,0 -2.1,0s-2.1,0.944566 -1.8,2.928156l0,-0.000001z" id="svg_1"/>
  <path fill="#ffffff" d="m10.47519,3.39265c0.2,1.22794 0.4,1.51131 0.4,2.73924c0,0.75566 -1.5,1.41685 -1.5,1.41685l0,0.94457c0,0 1.5,0.6612 1.5,1.41685c0,1.22794 -0.2,1.51131 -0.4,2.73924c-0.3,1.98359 0.8,2.92816 1.8,2.92816s2.1,0 2.1,0l0,-1.88913c0,0 -1.8,0.18891 -1.8,-0.94457c0,-0.85011 0.2,-0.85011 0.4,-2.73924c0.1,-0.85011 -0.5,-1.51131 -1.1,-1.98359c0.6,-0.47229 1.2,-1.03903 1.1,-1.88914c-0.3,-1.88913 -0.4,-1.88913 -0.4,-2.73924c0,-1.13348 1.8,-1.03902 1.8,-1.03902l0,-1.88913c0,0 -1,0 -2.1,0s-2.1,0.94456 -1.8,2.92815z" id="svg_3" transform="rotate(-180 11.875190734863281,8.02103042602539) "/>
 </g>
</svg>