<svg aria-hidden="true" style="position: absolute; width: 0; height: 0; overflow: hidden;" version="1.1" xmlns="http://www.w3.org/2000/svg" xmlns:xlink="http://www.w3.org/1999/xlink">
<defs>
<symbol id="icon-resume" viewBox="0 0 32 32">
<title>resume</title>
<path d="M20.754 0h-17.287v32h25.067v-24.221l-7.779-7.779zM21.067 1.821l5.646 5.646h-5.646v-5.646zM4.533 30.933v-29.867h15.467v7.467h7.467v22.4h-22.933z"></path>
<path d="M18.4 19.733c0.294 0 0.533-0.238 0.533-0.533s-0.239-0.533-0.533-0.533h-9.067c-0.294 0-0.533 0.238-0.533 0.533s0.239 0.533 0.533 0.533h9.067z"></path>
<path d="M23.733 16h-3.733c-0.294 0-0.533 0.238-0.533 0.533s0.239 0.533 0.533 0.533h3.733c0.294 0 0.533-0.238 0.533-0.533s-0.239-0.533-0.533-0.533z"></path>
<path d="M11.467 16.533c0 0.295 0.239 0.533 0.533 0.533h5.333c0.294 0 0.533-0.238 0.533-0.533s-0.239-0.533-0.533-0.533h-5.333c-0.294 0-0.533 0.238-0.533 0.533z"></path>
<path d="M8.955 16.155c-0.096 0.101-0.155 0.239-0.155 0.379s0.059 0.277 0.155 0.373c0.096 0.101 0.235 0.16 0.379 0.16s0.277-0.059 0.379-0.155c0.096-0.101 0.155-0.24 0.155-0.379s-0.059-0.278-0.155-0.379c-0.197-0.197-0.565-0.192-0.757 0z"></path>
<path d="M20.688 18.821c-0.096 0.101-0.155 0.234-0.155 0.379s0.053 0.277 0.155 0.379c0.101 0.096 0.24 0.155 0.379 0.155s0.277-0.059 0.379-0.155c0.101-0.101 0.155-0.235 0.155-0.379 0-0.139-0.059-0.278-0.155-0.379-0.203-0.197-0.555-0.197-0.757 0z"></path>
<path d="M23.355 18.821c-0.096 0.101-0.155 0.234-0.155 0.379s0.053 0.277 0.155 0.379c0.101 0.096 0.24 0.155 0.379 0.155s0.277-0.059 0.379-0.16c0.101-0.101 0.155-0.235 0.155-0.373s-0.059-0.278-0.155-0.379c-0.203-0.197-0.555-0.197-0.757 0z"></path>
<path d="M12.28 21.422c-1.168 0.608-1.561 1.771-1.705 2.977-0.221-0.185-0.442-0.37-0.662-0.555-0.523-0.438-1.281 0.313-0.754 0.755 0.499 0.418 0.998 0.836 1.497 1.254 0.351 0.294 0.894 0.108 0.91-0.377 0.039-1.155 0.093-2.529 1.252-3.132 0.61-0.317 0.070-1.238-0.538-0.922z"></path>
<path d="M19.443 23.524c-0.778-0.049-1.916 1.149-2.515 0.082-0.139-0.247-0.487-0.34-0.73-0.191-0.755 0.463-1.742 1.13-2.537 0.267-0.466-0.506-1.219 0.25-0.754 0.754 0.997 1.084 2.281 0.755 3.413 0.14 0.255 0.285 0.571 0.494 0.98 0.577 0.422 0.085 2.147-0.609 2.24-0.481 0.401 0.549 1.327 0.017 0.921-0.538-0.276-0.377-0.53-0.578-1.018-0.609z"></path>
<path d="M15.289 12.78l0.359-0.255-0.183-0.401c-0.166-0.364-0.434-0.646-0.773-0.817l-1.131-0.577c0.52-0.332 0.894-0.833 1.117-1.494 0.365-0.222 0.595-0.618 0.595-1.058v-0.356c0-0.361-0.157-0.698-0.423-0.931-0.19-1.012-0.877-2.107-2.955-2.107-0.082 0-0.162 0.003-0.241 0.010-0.279 0.023-0.685 0-1.033-0.234-0.162-0.109-0.244-0.193-0.285-0.245-0.169-0.215-0.453-0.29-0.706-0.187s-0.401 0.357-0.37 0.629c0.016 0.137 0.039 0.297 0.074 0.471 0.045 0.224 0.047 0.289 0.046 0.306-0.004 0.019-0.035 0.085-0.060 0.138-0.037 0.080-0.083 0.179-0.137 0.31-0.116 0.282-0.2 0.589-0.251 0.917-0.261 0.234-0.415 0.567-0.415 0.923v0.356c0 0.441 0.23 0.836 0.595 1.058 0.222 0.659 0.595 1.158 1.111 1.49l-1.175 0.58c-0.327 0.178-0.582 0.462-0.737 0.822l-0.171 0.395 0.35 0.25c1.003 0.716 2.18 1.094 3.406 1.094 1.221 0 2.395-0.375 3.394-1.086zM9.609 12.217l1.304-0.642c0.277-0.137 0.449-0.414 0.449-0.723v-0.758l-0.322-0.139c-0.486-0.209-0.803-0.614-0.97-1.238l-0.076-0.284-0.281-0.087c-0.062-0.019-0.128-0.079-0.128-0.167v-0.356c0-0.076 0.051-0.129 0.098-0.154l0.25-0.133 0.029-0.282c0.033-0.317 0.103-0.608 0.209-0.865 0.046-0.113 0.085-0.196 0.117-0.265 0.083-0.177 0.133-0.308 0.151-0.456 0.389 0.163 0.831 0.227 1.301 0.191 0.051-0.004 0.102-0.006 0.155-0.006 1.557 0 1.85 0.711 1.932 1.407l0.033 0.279 0.249 0.131c0.047 0.025 0.099 0.078 0.099 0.155v0.356c0 0.087-0.067 0.148-0.128 0.167l-0.281 0.087-0.076 0.284c-0.167 0.624-0.484 1.029-0.97 1.238l-0.322 0.139v0.762c0 0.304 0.168 0.579 0.44 0.718l1.288 0.658c-1.398 0.751-3.155 0.747-4.548-0.014z"></path>
</symbol>
<symbol id="icon-backend" viewBox="0 0 32 32">
<title>backend</title>
<path d="M16 19.613c-1.423 0-2.581 1.158-2.581 2.581s1.158 2.581 2.581 2.581 2.581-1.158 2.581-2.581-1.158-2.581-2.581-2.581zM16 23.742c-0.854 0-1.548-0.695-1.548-1.548s0.695-1.548 1.548-1.548 1.548 0.695 1.548 1.548-0.695 1.548-1.548 1.548z"></path>
<path d="M15.484 2.065h4.129v1.032h-4.129z"></path>
<path d="M15.484 4.129h4.129v1.032h-4.129z"></path>
<path d="M12.387 6.194h7.226v1.032h-7.226z"></path>
<path d="M12.387 8.258h7.226v1.032h-7.226z"></path>
<path d="M12.387 10.323h7.226v1.032h-7.226z"></path>
<path d="M32 16.516v-4.129h-7.226v4.129h3.097v5.161h-6.194v-0.888l-1.267-0.423 0.597-1.194-1.986-1.986-1.195 0.598-0.422-1.268h-0.888v-3.097h5.161v-6.194h6.194v2.883l-1.183-1.183-0.73 0.73 2.429 2.429 2.429-2.429-0.73-0.73-1.183 1.183v-3.915h-7.226v-6.194h-7.956l-3.399 3.399v2.794h-7.226v3.915l-1.183-1.183-0.73 0.73 2.429 2.429 2.429-2.429-0.73-0.73-1.183 1.183v-2.883h6.194v6.194h5.161v3.097h-0.888l-0.422 1.268-1.195-0.598-1.986 1.986 0.597 1.194-1.267 0.423v0.888h-6.194v-5.161h3.097v-4.129h-7.226v4.129h3.097v8.331c-0.888 0.231-1.548 1.032-1.548 1.991 0 1.139 0.926 2.065 2.065 2.065s2.065-0.926 2.065-2.065c0-0.959-0.66-1.761-1.548-1.991v-2.138h3.097v6.289c-0.599 0.214-1.032 0.782-1.032 1.453 0 0.854 0.695 1.548 1.548 1.548s1.548-0.695 1.548-1.548c0-0.672-0.433-1.24-1.032-1.453v-6.289h2.065v0.888l1.267 0.423-0.597 1.194 1.986 1.986 1.195-0.598 0.422 1.268h2.808l0.422-1.268 1.195 0.598 1.986-1.986-0.597-1.194 1.268-0.423v-0.888h2.065v6.289c-0.599 0.214-1.032 0.782-1.032 1.453 0 0.854 0.695 1.548 1.548 1.548s1.548-0.695 1.548-1.548c0-0.672-0.433-1.24-1.032-1.453v-6.289h3.097v2.138c-0.888 0.231-1.548 1.032-1.548 1.991 0 1.139 0.926 2.065 2.065 2.065s2.065-0.926 2.065-2.065c0-0.959-0.66-1.761-1.548-1.991v-8.331zM13.419 1.762v1.335h-1.335zM11.355 4.129h3.097v-3.097h6.194v11.355h-9.29zM1.032 13.419h5.161v2.065h-5.161zM4.645 26.839c0 0.569-0.463 1.032-1.032 1.032s-1.032-0.463-1.032-1.032 0.463-1.032 1.032-1.032 1.032 0.463 1.032 1.032zM7.742 30.968c-0.285 0-0.516-0.232-0.516-0.516s0.231-0.516 0.516-0.516 0.516 0.232 0.516 0.516-0.231 0.516-0.516 0.516zM20.645 22.854l-1.184 0.395-0.087 0.228c-0.026 0.066-0.052 0.132-0.080 0.196l-0.1 0.224 0.558 1.116-0.934 0.934-1.116-0.558-0.223 0.1c-0.064 0.028-0.128 0.054-0.194 0.079l-0.23 0.087-0.395 1.186h-1.321l-0.395-1.186-0.23-0.087c-0.066-0.025-0.13-0.051-0.194-0.079l-0.223-0.1-1.116 0.558-0.934-0.934 0.558-1.116-0.1-0.224c-0.029-0.065-0.054-0.13-0.080-0.196l-0.087-0.228-1.183-0.395v-1.321l1.184-0.395 0.087-0.228c0.026-0.066 0.052-0.132 0.080-0.196l0.1-0.223-0.558-1.116 0.934-0.934 1.116 0.558 0.223-0.1c0.063-0.028 0.128-0.054 0.194-0.079l0.23-0.087 0.395-1.185h1.321l0.395 1.186 0.23 0.087c0.066 0.025 0.13 0.051 0.194 0.079l0.223 0.1 1.116-0.558 0.934 0.934-0.558 1.116 0.1 0.224c0.029 0.065 0.054 0.13 0.080 0.196l0.087 0.228 1.183 0.395zM24.258 30.968c-0.285 0-0.516-0.232-0.516-0.516s0.231-0.516 0.516-0.516 0.516 0.232 0.516 0.516-0.231 0.516-0.516 0.516zM29.419 26.839c0 0.569-0.463 1.032-1.032 1.032s-1.032-0.463-1.032-1.032 0.463-1.032 1.032-1.032 1.032 0.463 1.032 1.032zM25.806 13.419h5.161v2.065h-5.161z"></path>
</symbol>
<symbol id="icon-frontend" viewBox="0 0 32 32">
<title>frontend</title>
<path d="M12.626 22.425c-0.121 0-0.243-0.042-0.342-0.126l-3.419-2.911c-0.118-0.101-0.186-0.247-0.186-0.402s0.068-0.302 0.186-0.402l3.419-2.911c0.222-0.189 0.555-0.162 0.745 0.060s0.162 0.556-0.060 0.745l-2.946 2.509 2.946 2.509c0.222 0.189 0.249 0.523 0.060 0.745-0.105 0.123-0.253 0.186-0.403 0.186z"></path>
<path d="M19.374 22.425c-0.149 0-0.298-0.063-0.402-0.186-0.189-0.222-0.162-0.555 0.060-0.745l2.946-2.509-2.946-2.509c-0.222-0.189-0.249-0.522-0.060-0.745s0.523-0.249 0.744-0.060l3.419 2.911c0.118 0.101 0.186 0.247 0.186 0.402s-0.068 0.302-0.186 0.402l-3.419 2.911c-0.099 0.085-0.221 0.126-0.342 0.126z"></path>
<path d="M14.79 24.608c-0.036 0-0.073-0.004-0.11-0.012-0.285-0.060-0.468-0.34-0.408-0.626l2.131-10.116c0.060-0.285 0.34-0.468 0.626-0.408s0.468 0.34 0.408 0.626l-2.131 10.116c-0.052 0.249-0.272 0.42-0.516 0.42z"></path>
<path d="M28.453 30.12h-24.906c-1.956 0-3.547-1.591-3.547-3.547v-21.139c0-1.956 1.591-3.547 3.547-3.547h24.906c1.956 0 3.547 1.591 3.547 3.547v21.139c0 1.956-1.591 3.547-3.547 3.547zM3.547 2.943c-1.373 0-2.491 1.117-2.491 2.491v21.139c0 1.373 1.117 2.491 2.491 2.491h24.906c1.373 0 2.491-1.117 2.491-2.491v-21.139c0-1.373-1.117-2.491-2.491-2.491z"></path>
<path d="M31.472 10.346h-30.943c-0.292 0-0.528-0.236-0.528-0.528s0.236-0.528 0.528-0.528h30.943c0.292 0 0.528 0.237 0.528 0.528s-0.236 0.528-0.528 0.528z"></path>
<path d="M9.027 7.818c-0.922 0-1.672-0.75-1.672-1.672s0.75-1.672 1.672-1.672c0.922 0 1.672 0.75 1.672 1.672s-0.75 1.672-1.672 1.672zM9.027 5.531c-0.339 0-0.615 0.276-0.615 0.615s0.276 0.615 0.615 0.615c0.339 0 0.615-0.276 0.615-0.615s-0.276-0.615-0.615-0.615z"></path>
<path d="M3.89 7.802c-0.922 0-1.672-0.75-1.672-1.672s0.75-1.672 1.672-1.672c0.922 0 1.672 0.75 1.672 1.672s-0.75 1.672-1.672 1.672zM3.89 5.515c-0.339 0-0.615 0.276-0.615 0.615s0.276 0.615 0.615 0.615c0.339 0 0.615-0.276 0.615-0.615s-0.276-0.615-0.615-0.615z"></path>
<path d="M14.163 7.834c-0.922 0-1.672-0.75-1.672-1.672s0.75-1.672 1.672-1.672c0.922 0 1.672 0.75 1.672 1.672s-0.75 1.672-1.672 1.672zM14.163 5.547c-0.339 0-0.615 0.276-0.615 0.615s0.276 0.615 0.615 0.615c0.339 0 0.615-0.276 0.615-0.615s-0.276-0.615-0.615-0.615z"></path>
</symbol>
<symbol id="icon-test" viewBox="0 0 32 32">
<title>test</title>
<path d="M25.703 12.923v-7.826c0.765-0.085 1.362-0.735 1.362-1.522 0-0.845-0.687-1.532-1.532-1.532h-6.808c-0.845 0-1.532 0.687-1.532 1.532 0 0.787 0.597 1.437 1.362 1.522v7.826c-1.544 0.6-2.917 1.584-3.99 2.862-0.181 0.216-0.153 0.538 0.063 0.719 0.096 0.080 0.212 0.12 0.328 0.12 0.146 0 0.29-0.062 0.391-0.182 1.033-1.23 2.376-2.157 3.886-2.679 0.206-0.071 0.344-0.265 0.344-0.482v-8.173h2.893c0.282 0 0.511-0.229 0.511-0.511s-0.229-0.511-0.511-0.511h-3.744c-0.282 0-0.511-0.229-0.511-0.511s0.229-0.511 0.511-0.511h6.808c0.282 0 0.511 0.229 0.511 0.511s-0.229 0.511-0.511 0.511h-1.021c-0.282 0-0.511 0.229-0.511 0.511s0.229 0.511 0.511 0.511h0.17v8.172c0 0.218 0.138 0.411 0.344 0.482 3.561 1.233 5.954 4.595 5.954 8.365 0 4.88-3.97 8.851-8.851 8.851-1.151 0-2.27-0.218-3.329-0.648-0.261-0.106-0.559 0.020-0.665 0.281s0.020 0.559 0.281 0.665c1.181 0.48 2.43 0.723 3.713 0.723 5.443 0 9.872-4.428 9.872-9.872 0-4.083-2.516-7.736-6.297-9.204z"></path>
<path d="M26.444 23.923c0 0.282-0.229 0.511-0.511 0.511s-0.511-0.229-0.511-0.511c0-0.282 0.229-0.511 0.511-0.511s0.511 0.229 0.511 0.511z"></path>
<path d="M24.402 25.965c0 0.282-0.229 0.511-0.511 0.511s-0.511-0.229-0.511-0.511c0-0.282 0.229-0.511 0.511-0.511s0.511 0.229 0.511 0.511z"></path>
<path d="M19.244 28.296c-0.255-0.119-0.559-0.010-0.679 0.246s-0.010 0.559 0.246 0.679c1.043 0.488 2.159 0.736 3.317 0.736 4.317 0 7.829-3.512 7.829-7.829 0-1.376-0.362-2.73-1.048-3.915-0.104-0.18-0.306-0.279-0.512-0.25l-0.186 0.026c-0.023 0.003-0.046 0.008-0.069 0.015-0.772 0.219-1.188 0.553-1.523 0.822-0.371 0.298-0.615 0.494-1.322 0.494-0.603 0-0.875-0.234-1.252-0.558-0.417-0.358-0.936-0.804-1.918-0.804s-1.5 0.446-1.918 0.804c-0.377 0.324-0.649 0.557-1.252 0.557-0.706 0-0.951-0.197-1.322-0.494-0.334-0.269-0.751-0.603-1.523-0.822-0.023-0.006-0.046-0.011-0.069-0.015l-0.186-0.026c-0.205-0.029-0.407 0.070-0.512 0.249-0.004 0.008-0.009 0.015-0.013 0.024-0.141 0.244-0.056 0.557 0.188 0.697 0.106 0.061 0.225 0.080 0.337 0.061l0.008 0.001c0.551 0.162 0.832 0.388 1.129 0.626 0.44 0.354 0.895 0.719 1.961 0.719 0.982 0 1.5-0.446 1.918-0.804 0.377-0.324 0.649-0.557 1.252-0.557s0.875 0.234 1.252 0.558c0.417 0.358 0.936 0.804 1.918 0.804 1.066 0 1.521-0.366 1.961-0.719 0.262-0.211 0.512-0.411 0.946-0.567 0.48 0.948 0.732 2.003 0.732 3.073 0 3.754-3.054 6.808-6.808 6.808-1.008-0-1.978-0.215-2.884-0.64z"></path>
<path d="M12.325 13.194v-10.139c0.765-0.085 1.362-0.735 1.362-1.522 0-0.845-0.687-1.532-1.532-1.532h-6.808c-0.845 0-1.532 0.687-1.532 1.532 0 0.787 0.597 1.437 1.362 1.522v8.182c0 0.282 0.229 0.511 0.511 0.511s0.511-0.229 0.511-0.511v-8.173h2.893c0.282 0 0.511-0.229 0.511-0.511s-0.229-0.511-0.511-0.511h-3.744c-0.282 0-0.511-0.229-0.511-0.511s0.229-0.511 0.511-0.511h6.808c0.282 0 0.511 0.229 0.511 0.511s-0.229 0.511-0.511 0.511h-1.021c-0.282 0-0.511 0.229-0.511 0.511s0.229 0.511 0.511 0.511h0.17v10.215c0 0.057 0.009 0.113 0.028 0.167l4.962 14.348c0.3 0.867 0.232 1.67-0.19 2.263s-1.16 0.92-2.077 0.92h-10.553c-0.917 0-1.654-0.327-2.077-0.92s-0.49-1.397-0.19-2.263l4.962-14.348c0.092-0.267-0.049-0.557-0.316-0.649s-0.557 0.049-0.649 0.316l-4.962 14.348c-0.411 1.187-0.296 2.32 0.324 3.19s1.652 1.348 2.909 1.348h10.553c1.256 0 2.289-0.479 2.909-1.348s0.734-2.002 0.324-3.19l-4.934-14.267z"></path>
<path d="M4.402 23.746c-0.13-0.101-0.301-0.133-0.458-0.086s-0.283 0.167-0.337 0.323l-1.434 4.146c-0.189 0.546-0.168 1.021 0.057 1.337s0.668 0.491 1.245 0.491h10.553c0.577 0 1.020-0.174 1.245-0.491s0.246-0.791 0.057-1.337l-1.434-4.146c-0.054-0.156-0.179-0.276-0.337-0.323s-0.329-0.015-0.458 0.086c-0.279 0.216-0.542 0.381-1.179 0.381-0.603 0-0.875-0.234-1.252-0.558-0.417-0.358-0.936-0.804-1.918-0.804s-1.5 0.446-1.918 0.804c-0.377 0.324-0.649 0.557-1.252 0.557-0.637-0-0.901-0.165-1.179-0.381zM7.498 24.344c0.377-0.324 0.649-0.557 1.252-0.557s0.875 0.234 1.252 0.558c0.417 0.358 0.936 0.804 1.918 0.804 0.534 0 0.918-0.096 1.218-0.23l1.226 3.544c0.072 0.209 0.076 0.347 0.069 0.406-0.054 0.026-0.184 0.067-0.406 0.067h-10.553c-0.222 0-0.353-0.041-0.406-0.067-0.007-0.059-0.003-0.196 0.069-0.406l1.226-3.544c0.3 0.134 0.684 0.23 1.218 0.23 0.982-0 1.501-0.446 1.918-0.804z"></path>
</symbol>
<symbol id="icon-chai" viewBox="0 0 28 32">
<title>chai</title>
<path d="M1.197 23.32l12.641 7.298 12.641-7.298v-14.596l-12.641-7.298-12.641 7.298v14.596zM13.838 32l-13.838-7.989v-15.978l13.838-7.989 13.838 7.989v15.978l-13.838 7.989z"></path>
<path d="M19.712 10.613c0 0.581-0.115 1.158-0.344 1.731s-0.537 1.104-0.923 1.593c-0.386 0.489-0.831 0.917-1.335 1.284s-1.028 0.63-1.57 0.791l-0.241-0.401c0.321-0.16 0.615-0.367 0.883-0.619s0.497-0.537 0.688-0.854c0.191-0.317 0.338-0.653 0.441-1.009s0.155-0.716 0.155-1.083c0-0.42-0.061-0.818-0.183-1.192s-0.302-0.701-0.539-0.98c-0.237-0.279-0.529-0.499-0.877-0.659s-0.747-0.241-1.198-0.241c-0.55 0-1.054 0.107-1.513 0.321s-0.871 0.502-1.238 0.865c-0.367 0.363-0.686 0.779-0.957 1.249s-0.497 0.963-0.676 1.478c-0.18 0.516-0.315 1.037-0.407 1.564s-0.138 1.024-0.138 1.49c0 0.474 0.050 0.963 0.149 1.467s0.245 1.001 0.436 1.49c0.191 0.489 0.428 0.951 0.711 1.387s0.609 0.818 0.98 1.146c0.371 0.329 0.783 0.59 1.238 0.785s0.949 0.292 1.484 0.292c0.367 0 0.724-0.050 1.072-0.149s0.682-0.233 1.003-0.401c0.321-0.168 0.625-0.367 0.911-0.596s0.552-0.478 0.797-0.745l0.378 0.367c-0.336 0.443-0.735 0.869-1.198 1.278s-0.961 0.772-1.496 1.089c-0.535 0.317-1.095 0.569-1.679 0.756s-1.163 0.281-1.736 0.281c-0.558 0-1.083-0.097-1.576-0.292s-0.946-0.458-1.358-0.791c-0.413-0.332-0.781-0.722-1.106-1.169s-0.6-0.923-0.825-1.427c-0.225-0.504-0.397-1.024-0.516-1.559s-0.178-1.058-0.178-1.57c0-0.741 0.124-1.503 0.372-2.286s0.59-1.543 1.026-2.281c0.436-0.737 0.949-1.435 1.542-2.092s1.23-1.23 1.914-1.719c0.684-0.489 1.398-0.877 2.143-1.163s1.488-0.43 2.229-0.43c0.458 0 0.886 0.067 1.284 0.201s0.741 0.327 1.032 0.579c0.29 0.252 0.52 0.565 0.688 0.94s0.252 0.802 0.252 1.284v0z"></path>
</symbol>
<symbol id="icon-d3" viewBox="0 0 32 32">
<title>d3</title>
<path d="M31.95 22.804c0.014-0.139 0.025-0.28 0.033-0.421 0.010-0.167-10.074-9.734-10.074-9.734h-0.241s10.22 10.78 10.282 10.156z"></path>
<path d="M10.437 19.485c-0.013 0.029-0.027 0.059-0.040 0.088-0.014 0.031-0.029 0.061-0.044 0.092-0.321 0.67 4.5 5.383 4.888 4.811 0.018-0.025 0.035-0.052 0.053-0.077 0.020-0.030 0.039-0.059 0.058-0.089 0.31-0.471-4.777-5.131-4.915-4.825z"></path>
<path d="M17.25 26.113c-0.014 0.030-0.111 0.194-0.199 0.281-0.015 0.030 4.707 4.713 4.707 4.713h0.425c0 0-4.432-4.795-4.932-4.993z"></path>
<path d="M31.99 22.297c-0.221 4.895-4.27 8.809-9.218 8.809h-0.669l-4.941-4.868c0.406-0.573 0.784-1.167 1.121-1.786h4.489c1.42 0 2.575-1.155 2.575-2.575s-1.155-2.575-2.575-2.575h-2.657c0.202-1.070 0.313-2.173 0.313-3.302 0-1.146-0.113-2.265-0.322-3.352h1.65l10.205 10.055c0.012-0.135 0.022-0.269 0.029-0.405zM2.684 0.844h-2.684v6.654h2.684c4.688 0 8.503 3.814 8.503 8.502 0 1.275-0.284 2.486-0.79 3.573l4.897 4.825c1.608-2.406 2.548-5.294 2.548-8.398 0-8.357-6.8-15.156-15.158-15.156z"></path>
<path d="M22.772 0.844h-10.87c2.655 1.621 4.853 3.919 6.351 6.654h4.518c1.42 0 2.575 1.155 2.575 2.575s-1.155 2.575-2.575 2.575h-1.015l10.205 10.055c0.024-0.273 0.039-0.547 0.039-0.826 0-2.243-0.805-4.301-2.141-5.902 1.336-1.601 2.141-3.659 2.141-5.902 0-5.089-4.139-9.229-9.228-9.229z"></path>
<path d="M22.103 31.106h-10.123c2.038-1.258 3.799-2.92 5.182-4.868zM15.294 24.398l-4.897-4.825c-1.353 2.907-4.301 4.929-7.713 4.929h-2.684v6.653h2.684c5.253 0 9.889-2.687 12.61-6.757z"></path>
</symbol>
<symbol id="icon-jest" viewBox="0 0 32 32">
<title>jest</title>
<path d="M29.668 15.759c0-1.927-1.325-3.548-3.104-4.012l3.984-11.748h-19.743l3.993 11.785c-1.723 0.5-2.992 2.094-2.992 3.984 0 1.39 0.695 2.622 1.751 3.382-0.417 0.593-0.899 1.14-1.445 1.658-1.028 0.964-2.168 1.705-3.4 2.196-1.112-0.75-1.593-2.075-1.158-3.261 1.695-0.519 2.928-2.103 2.928-3.965 0-2.288-1.862-4.141-4.141-4.141-2.288 0-4.151 1.862-4.151 4.151 0 1.13 0.463 2.168 1.204 2.909-0.065 0.13-0.13 0.259-0.195 0.398-0.621 1.279-1.325 2.724-1.593 4.345-0.537 3.243 0.343 5.846 2.464 7.319 1.195 0.825 2.511 1.241 3.928 1.241 2.437 0 4.91-1.223 7.301-2.409 1.705-0.843 3.465-1.723 5.197-2.149 0.639-0.157 1.306-0.25 2.010-0.352 1.427-0.204 2.9-0.417 4.225-1.186 1.547-0.899 2.603-2.4 2.909-4.123 0.232-1.325 0-2.659-0.593-3.826 0.398-0.639 0.621-1.39 0.621-2.196zM27.862 15.759c0 1.288-1.047 2.335-2.335 2.335s-2.335-1.047-2.335-2.335c0-0.417 0.111-0.815 0.306-1.158 0.074-0.13 0.167-0.259 0.259-0.371s0.204-0.213 0.324-0.306l0.009-0.009c0.074-0.056 0.157-0.111 0.241-0.167 0 0 0.009 0 0.009-0.009 0.037-0.019 0.074-0.046 0.111-0.065 0.009 0 0.019-0.009 0.028-0.009 0.037-0.019 0.083-0.037 0.13-0.056s0.093-0.037 0.13-0.056c0.009 0 0.019-0.009 0.028-0.009 0.037-0.009 0.074-0.028 0.111-0.037 0.009 0 0.028-0.009 0.037-0.009 0.046-0.009 0.083-0.019 0.13-0.028h0.009c0.046-0.009 0.093-0.019 0.139-0.028 0.009 0 0.028 0 0.037-0.009 0.037 0 0.074-0.009 0.111-0.009h0.046c0.046 0 0.093-0.009 0.148-0.009h0.12c0.037 0 0.065 0 0.102 0.009h0.019c0.074 0.009 0.148 0.019 0.222 0.037 1.056 0.222 1.862 1.167 1.862 2.298zM13.39 1.853h14.573l-3.345 9.867c-0.139 0.028-0.278 0.074-0.417 0.12l-3.521-7.18-3.53 7.134c-0.139-0.046-0.287-0.074-0.435-0.102zM20.014 14.953c-0.176-0.871-0.621-1.649-1.251-2.223l1.918-3.873 1.936 3.956c-0.574 0.574-0.991 1.306-1.158 2.14zM15.373 13.489c0.046-0.009 0.083-0.019 0.13-0.028h0.028c0.037-0.009 0.074-0.009 0.111-0.019h0.037c0.037 0 0.065-0.009 0.102-0.009h0.361c0.037 0 0.065 0.009 0.093 0.009 0.019 0 0.028 0 0.046 0.009 0.037 0.009 0.065 0.009 0.102 0.019 0.009 0 0.019 0 0.037 0.009 0.046 0.009 0.093 0.019 0.13 0.028h0.009c0.037 0.009 0.074 0.019 0.111 0.037 0.009 0 0.019 0.009 0.037 0.009 0.028 0.009 0.065 0.019 0.093 0.037 0.009 0 0.019 0.009 0.028 0.009 0.037 0.019 0.074 0.028 0.111 0.046h0.009c0.046 0.019 0.083 0.037 0.12 0.065h0.009c0.037 0.019 0.074 0.046 0.111 0.065 0.009 0 0.009 0.009 0.019 0.009 0.037 0.019 0.065 0.046 0.102 0.065l0.009 0.009c0.111 0.083 0.213 0.176 0.315 0.269l0.009 0.009c0.093 0.102 0.185 0.213 0.259 0.334 0.241 0.371 0.38 0.806 0.38 1.279 0 1.288-1.047 2.335-2.335 2.335s-2.335-1.047-2.335-2.335c-0.009-1.084 0.741-2.001 1.76-2.261zM6.256 13.424c1.288 0 2.335 1.047 2.335 2.335s-1.047 2.335-2.335 2.335-2.335-1.047-2.335-2.335 1.047-2.335 2.335-2.335zM27.806 21.457c-0.204 1.186-0.936 2.224-2.010 2.844-1.010 0.584-2.251 0.769-3.558 0.954-0.713 0.102-1.464 0.213-2.186 0.389-1.927 0.473-3.78 1.399-5.577 2.288-2.298 1.14-4.466 2.214-6.476 2.214-1.047 0-1.983-0.296-2.872-0.917-2.038-1.408-1.936-4.049-1.695-5.494 0.222-1.353 0.843-2.622 1.436-3.836 0.037-0.074 0.065-0.139 0.102-0.213 0.204 0.074 0.417 0.13 0.639 0.167-0.352 1.964 0.649 3.993 2.594 4.994l0.352 0.185 0.38-0.139c1.621-0.574 3.122-1.51 4.447-2.761 0.75-0.704 1.39-1.464 1.927-2.288 0.213 0.037 0.426 0.046 0.639 0.046 1.927 0 3.548-1.325 4.012-3.104h1.556c0.463 1.788 2.085 3.104 4.012 3.104 0.769 0 1.482-0.213 2.094-0.574 0.241 0.695 0.315 1.418 0.185 2.14z"></path>
</symbol>
<symbol id="icon-mocha" viewBox="0 0 28 32">
<title>mocha</title>
<path d="M14.058 2.171c-0.257 0-0.515 0.069-0.738 0.206l-10.677 6.162c-0.463 0.258-0.738 0.755-0.738 1.27v12.325c0 0.532 0.275 1.013 0.738 1.27l10.677 6.162c0.223 0.137 0.481 0.206 0.738 0.206s0.515-0.069 0.738-0.206l10.677-6.162c0.463-0.258 0.738-0.755 0.738-1.27v-12.325c0-0.532-0.275-1.013-0.738-1.27l-10.677-6.162c-0.223-0.137-0.481-0.206-0.738-0.206v0zM14.058 2.686v0c0.172 0 0.326 0.051 0.481 0.137l10.677 6.162c0.292 0.172 0.481 0.498 0.481 0.841v12.325c0 0.343-0.189 0.669-0.481 0.841l-10.677 6.162c-0.155 0.086-0.309 0.137-0.481 0.137s-0.343-0.051-0.481-0.137l-10.677-6.162c-0.292-0.172-0.481-0.498-0.481-0.841v-12.325c0-0.343 0.189-0.669 0.481-0.841l10.677-6.162c0.155-0.086 0.326-0.137 0.481-0.137v0zM13.071 13.432h1.442c0.052 0 0.086-0.017 0.12-0.052 0.858-0.961 0.944-2.97 0.944-3.57 0-0.086-0.069-0.172-0.172-0.172h-3.227c-0.086 0-0.172 0.069-0.172 0.172 0 0.584 0.086 2.592 0.944 3.57 0.034 0.034 0.069 0.052 0.12 0.052zM12.677 10.171h2.266c0.086 0 0.172 0.069 0.172 0.172 0 0.481-0.086 1.837-0.669 2.54-0.051 0.034-0.086 0.052-0.137 0.052h-1.013c-0.052 0-0.086-0.017-0.12-0.052-0.584-0.687-0.652-2.060-0.669-2.54 0-0.086 0.069-0.172 0.172-0.172zM14.118 9.295c0 0 0.618-0.36 0.24-1.013-0.223-0.343-0.326-0.635-0.24-0.755-0.223 0.275-0.601 0.566-0.189 1.184 0.137 0.155 0.206 0.481 0.189 0.584zM13.432 9.347c0 0 0.412-0.24 0.155-0.687-0.155-0.223-0.223-0.429-0.155-0.498-0.155 0.189-0.395 0.378-0.12 0.807 0.086 0.086 0.12 0.309 0.12 0.378zM13.38 12.728h0.858c0.034 0 0.069-0.017 0.103-0.051 0.292-0.343 0.429-0.875 0.498-1.339 0 0-0.017 0.155-0.429 0.309-0.566 0.206-1.562 0.069-1.562 0.069 0.086 0.36 0.223 0.704 0.429 0.961 0.017 0.034 0.069 0.051 0.103 0.051zM6.926 17.552v-3.433h-0.635l-1.047 1.614-1.047-1.614h-0.635v3.45h0.601v-2.455l1.064 1.596h0.017l1.082-1.614v2.455h0.601zM10.771 14.187c-0.223-0.086-0.463-0.137-0.721-0.137s-0.498 0.034-0.721 0.137c-0.223 0.086-0.412 0.223-0.566 0.378-0.172 0.172-0.292 0.36-0.378 0.566-0.086 0.223-0.137 0.446-0.137 0.687v0.017c0 0.24 0.052 0.481 0.137 0.687 0.086 0.223 0.206 0.412 0.36 0.566s0.343 0.292 0.566 0.378c0.223 0.086 0.463 0.137 0.721 0.137s0.498-0.034 0.721-0.137c0.223-0.086 0.412-0.223 0.566-0.378 0.172-0.172 0.292-0.36 0.378-0.566 0.086-0.223 0.137-0.446 0.137-0.687v-0.017c0-0.24-0.052-0.481-0.137-0.687-0.086-0.223-0.206-0.412-0.36-0.566s-0.343-0.292-0.566-0.378zM11.183 15.852c0 0.155-0.034 0.309-0.086 0.464-0.069 0.137-0.137 0.275-0.24 0.378s-0.223 0.189-0.36 0.257c-0.137 0.069-0.292 0.103-0.463 0.103-0.154 0-0.326-0.034-0.463-0.103s-0.258-0.154-0.36-0.257c-0.103-0.12-0.189-0.24-0.24-0.395s-0.086-0.309-0.086-0.481v-0.017c0-0.155 0.034-0.309 0.086-0.463 0.069-0.137 0.137-0.275 0.24-0.378s0.223-0.189 0.36-0.258c0.137-0.069 0.292-0.103 0.463-0.103s0.326 0.034 0.463 0.103c0.137 0.069 0.258 0.155 0.36 0.258 0.103 0.12 0.189 0.24 0.24 0.395s0.086 0.309 0.086 0.481v0.017zM13.724 15.337c0.069-0.137 0.137-0.275 0.24-0.378s0.223-0.189 0.36-0.258c0.137-0.069 0.275-0.103 0.446-0.103 0.206 0 0.378 0.034 0.532 0.12s0.292 0.189 0.429 0.309l0.395-0.446c-0.086-0.086-0.172-0.155-0.258-0.223s-0.189-0.12-0.292-0.172c-0.12-0.034-0.223-0.069-0.361-0.103-0.137-0.017-0.275-0.034-0.429-0.034-0.275 0-0.498 0.051-0.721 0.137s-0.412 0.223-0.566 0.378c-0.155 0.172-0.275 0.36-0.36 0.566s-0.137 0.446-0.137 0.687v0.017c0 0.24 0.051 0.463 0.137 0.687s0.206 0.412 0.36 0.566 0.343 0.292 0.549 0.378c0.206 0.086 0.429 0.137 0.687 0.137 0.155 0 0.309 0 0.463-0.034 0.12-0.017 0.258-0.069 0.36-0.12s0.206-0.103 0.309-0.189c0.103-0.086 0.189-0.154 0.275-0.258l-0.395-0.395c-0.155 0.137-0.309 0.24-0.446 0.326s-0.326 0.12-0.532 0.12c-0.155 0-0.309-0.052-0.446-0.103s-0.257-0.154-0.36-0.257c-0.103-0.12-0.189-0.24-0.24-0.395s-0.086-0.309-0.086-0.481v-0.017c0-0.155 0.034-0.309 0.086-0.463zM17.346 14.119v3.433h0.601v-1.442h1.648v1.442h0.601v-3.433h-0.601v1.425h-1.648v-1.425h-0.601zM23.937 16.728l0.343 0.824h0.635l-1.511-3.45h-0.549l-1.511 3.45h0.618l0.36-0.824h1.614zM23.13 14.822l0.584 1.373h-1.167l0.584-1.373zM3.133 18.822h21.886v-0.189h-21.886v0.189zM15.715 12.179c0 0.069-0.017 0.12-0.017 0.189h9.321v-0.189h-9.304zM11.887 12.179h-8.754v0.189h8.772c0-0.069-0.017-0.12-0.017-0.189z"></path>
</symbol>
<symbol id="icon-bootstrap" viewBox="0 0 32 32">
<title>bootstrap</title>
<path d="M26.667 0h-21.333c-2.943 0.008-5.325 2.391-5.333 5.333v21.333c0 2.933 2.4 5.333 5.333 5.333h21.333c2.933 0 5.333-2.4 5.333-5.333v-21.333c0-2.933-2.4-5.333-5.333-5.333zM23.751 22.473c-0.267 0.643-0.689 1.209-1.231 1.645-0.56 0.453-1.269 0.827-2.143 1.093-0.872 0.271-1.909 0.407-3.111 0.407h-8.576v-18.667h9.069c1.677 0 3.021 0.377 4.027 1.147 1.013 0.773 1.517 1.925 1.517 3.48 0 0.94-0.229 1.747-0.691 2.413-0.459 0.663-1.12 1.181-1.973 1.541v0.061c1.139 0.24 2.020 0.78 2.6 1.62s0.877 1.901 0.877 3.183c0 0.717-0.139 1.4-0.4 2.037l0.033 0.036zM20.049 17.873c-0.547-0.5-1.315-0.744-2.307-0.744h-5.763v5.824h5.779c0.987 0 1.76-0.256 2.307-0.773 0.547-0.513 0.827-1.245 0.827-2.187-0.009-0.92-0.28-1.632-0.827-2.12h-0.023zM19.249 14.109c0.528-0.448 0.787-1.089 0.787-1.925 0-0.939-0.233-1.605-0.707-1.987-0.469-0.38-1.147-0.577-2.037-0.577h-5.333v5.151h5.333c0.777 0 1.44-0.227 1.952-0.661z"></path>
</symbol>
<symbol id="icon-react" viewBox="0 0 32 32">
<title>react</title>
<path d="M18.852 16c0 1.575-1.277 2.852-2.852 2.852s-2.852-1.277-2.852-2.852c0-1.575 1.277-2.852 2.852-2.852s2.852 1.277 2.852 2.852z"></path>
<path d="M8.011 21.673l-0.629-0.16c-4.691-1.185-7.381-3.197-7.381-5.519s2.691-4.333 7.381-5.519l0.629-0.159 0.177 0.624c0.545 1.86 1.163 3.443 1.899 4.957l-0.082-0.186 0.135 0.284-0.135 0.284c-0.656 1.329-1.275 2.912-1.761 4.551l-0.056 0.22-0.177 0.623zM7.089 11.933c-3.565 1.001-5.753 2.533-5.753 4.061 0 1.527 2.188 3.059 5.753 4.061 0.512-1.62 1.046-2.965 1.662-4.263l-0.086 0.202c-0.531-1.098-1.066-2.443-1.511-3.828l-0.065-0.234zM23.989 21.673l-0.177-0.625c-0.544-1.859-1.162-3.441-1.9-4.954l0.081 0.184-0.135-0.284 0.135-0.284c0.656-1.329 1.275-2.911 1.762-4.55l0.056-0.221 0.177-0.624 0.631 0.159c4.689 1.185 7.38 3.197 7.38 5.52s-2.691 4.333-7.38 5.519l-0.631 0.16zM23.335 15.995c0.64 1.385 1.169 2.747 1.576 4.061 3.567-1.003 5.753-2.535 5.753-4.061 0-1.528-2.188-3.059-5.753-4.061-0.511 1.619-1.045 2.963-1.662 4.262l0.086-0.2z"></path>
<path d="M7.080 11.927l-0.177-0.623c-1.319-4.648-0.919-7.979 1.097-9.141 1.977-1.141 5.152 0.207 8.479 3.621l0.453 0.465-0.453 0.465c-1.146 1.19-2.207 2.482-3.162 3.853l-0.068 0.103-0.18 0.257-0.313 0.027c-1.875 0.151-3.596 0.439-5.264 0.86l0.218-0.047-0.629 0.159zM9.608 3.087c-0.357 0-0.673 0.077-0.94 0.231-1.325 0.764-1.56 3.42-0.647 7.004 1.21-0.285 2.681-0.521 4.18-0.658l0.131-0.010c0.894-1.264 1.792-2.37 2.756-3.414l-0.020 0.022c-2.080-2.025-4.049-3.175-5.46-3.175zM22.393 30.236c-0.001 0-0.001 0 0 0-1.9 0-4.34-1.431-6.872-4.031l-0.453-0.465 0.453-0.465c1.146-1.19 2.206-2.482 3.16-3.854l0.068-0.103 0.18-0.257 0.312-0.027c1.875-0.15 3.597-0.438 5.267-0.858l-0.218 0.046 0.629-0.159 0.179 0.624c1.316 4.645 0.917 7.977-1.099 9.139-0.449 0.259-0.988 0.411-1.562 0.411-0.016 0-0.031-0-0.047-0l0.002 0zM16.932 25.728c2.080 2.025 4.049 3.175 5.46 3.175h0.001c0.356 0 0.673-0.077 0.939-0.231 1.325-0.764 1.561-3.421 0.647-7.005-1.212 0.286-2.682 0.522-4.182 0.658l-0.13 0.010c-0.893 1.265-1.791 2.371-2.755 3.416l0.020-0.022z"></path>
<path d="M24.92 11.927l-0.629-0.159c-1.453-0.376-3.175-0.664-4.939-0.806l-0.111-0.007-0.312-0.027-0.18-0.257c-1.021-1.474-2.082-2.766-3.237-3.966l0.009 0.010-0.453-0.465 0.453-0.465c3.325-3.413 6.499-4.761 8.479-3.621 2.016 1.163 2.416 4.493 1.099 9.14l-0.179 0.624zM19.667 9.653c1.523 0.139 2.969 0.364 4.312 0.668 0.915-3.584 0.679-6.24-0.647-7.004-1.317-0.761-3.793 0.405-6.4 2.944 0.943 1.022 1.841 2.128 2.666 3.289l0.069 0.103zM9.608 30.236c-0.014 0-0.030 0-0.046 0-0.574 0-1.113-0.152-1.577-0.419l0.015 0.008c-2.016-1.161-2.416-4.492-1.097-9.139l0.176-0.624 0.629 0.159c1.54 0.388 3.239 0.661 5.047 0.812l0.313 0.027 0.179 0.257c1.022 1.475 2.083 2.767 3.239 3.967l-0.010-0.010 0.453 0.465-0.453 0.465c-2.531 2.6-4.971 4.031-6.868 4.031zM8.021 21.667c-0.915 3.584-0.679 6.241 0.647 7.005 1.316 0.751 3.791-0.407 6.4-2.944-0.943-1.022-1.841-2.129-2.667-3.29l-0.069-0.103c-1.629-0.146-3.099-0.382-4.534-0.711l0.224 0.043z"></path>
<path d="M16 22.504c-1.097 0-2.225-0.048-3.355-0.141l-0.313-0.027-0.18-0.257c-0.544-0.768-1.139-1.691-1.697-2.639l-0.103-0.19c-0.452-0.758-0.971-1.732-1.45-2.728l-0.105-0.243-0.133-0.284 0.133-0.284c0.584-1.239 1.102-2.212 1.658-3.161l-0.103 0.191c0.552-0.955 1.159-1.907 1.8-2.829l0.18-0.257 0.313-0.027c1.005-0.090 2.174-0.142 3.355-0.142s2.35 0.052 3.505 0.153l-0.15-0.011 0.312 0.027 0.179 0.257c1.177 1.666 2.294 3.567 3.252 5.56l0.104 0.24 0.135 0.284-0.135 0.284c-1.058 2.232-2.176 4.133-3.439 5.925l0.083-0.125-0.179 0.257-0.312 0.027c-1.129 0.093-2.259 0.141-3.356 0.141zM13.071 21.059c1.973 0.148 3.885 0.148 5.86 0 1.004-1.445 1.978-3.104 2.827-4.836l0.101-0.228c-0.947-1.958-1.922-3.617-3.012-5.19l0.083 0.126c-0.877-0.071-1.898-0.111-2.929-0.111s-2.052 0.040-3.063 0.119l0.134-0.008c-1.008 1.447-1.983 3.106-2.83 4.84l-0.099 0.224c0.951 1.96 1.926 3.619 3.014 5.193l-0.085-0.13z"></path>
</symbol>
<symbol id="icon-codepen" viewBox="0 0 32 32">
<title>codepen</title>
<path d="M17.057 0.419c-0.863-0.571-1.989-0.558-2.839 0.034l-12.717 8.858c-0.678 0.473-1.082 1.246-1.082 2.074v9.544c0 0.849 0.425 1.64 1.134 2.108l12.925 8.544c0.845 0.559 1.942 0.559 2.787 0l13.182-8.709c0.707-0.468 1.134-1.259 1.134-2.108v-9.377c0-0.848-0.425-1.639-1.133-2.107l-13.391-8.861zM26.903 10.758l-4.872 3.271-4.569-3.323-0.029-6.535 9.47 6.587zM14.127 4.177v6.396l-4.682 3.274-4.67-3.132 9.352-6.538zM3.495 13.867l3.023 2.025-3.023 2.115v-4.14zM14.207 27.503l-9.43-6.324 4.71-3.292 4.719 3.166v6.451zM12.416 15.84l3.053-2.135 3.556 2.337-3.152 2.117-3.457-2.319zM17.538 27.503v-6.453l4.51-3.023 4.856 3.192-9.366 6.283zM28.25 18.117l-3.202-2.104 3.202-2.147v4.251z"></path>
</symbol>
<symbol id="icon-css" viewBox="0 0 32 32">
<title>css</title>
<path d="M30.495 0.22c-0.127-0.14-0.307-0.22-0.495-0.22h-28c-0.189 0-0.368 0.080-0.495 0.22-0.127 0.139-0.188 0.325-0.169 0.513l2.667 26.667c0.025 0.26 0.203 0.483 0.452 0.565l12 4c0.068 0.024 0.14 0.035 0.211 0.035 0.080 0 0.159-0.015 0.236-0.043l10.667-4c0.237-0.088 0.404-0.305 0.429-0.557l2.667-26.667c0.019-0.187-0.043-0.375-0.169-0.513zM26.709 26.855l-10.057 3.772-11.367-3.789-2.551-25.504h26.527l-2.552 25.521z"></path>
<path d="M25.176 6.905c-0.127-0.151-0.315-0.237-0.511-0.237h-16c-0.368 0-0.667 0.299-0.667 0.667s0.299 0.667 0.667 0.667h15.207l-0.927 5.332h-13.613c-0.368 0-0.667 0.299-0.667 0.667s0.299 0.667 0.667 0.667h13.381l-1.307 7.511-4.755 1.783-5.409-1.804-0.591-2.953c-0.071-0.36-0.419-0.596-0.784-0.523-0.36 0.072-0.595 0.423-0.523 0.784l0.667 3.333c0.047 0.235 0.216 0.425 0.443 0.501l6 2c0.068 0.024 0.14 0.035 0.211 0.035 0.080 0 0.159-0.015 0.235-0.041l5.333-2c0.221-0.084 0.383-0.277 0.423-0.511l2.667-15.333c0.033-0.193-0.020-0.392-0.147-0.543z"></path>
</symbol>
<symbol id="icon-expressjs" viewBox="0 0 32 32">
<title>expressjs</title>
<path d="M10.67 19.134v-6.145h0.334v0.967c0.038-0.041 0.074-0.085 0.106-0.132l0.003-0.004c0.273-0.558 0.837-0.935 1.488-0.935 0.007 0 0.013 0 0.019 0h-0.001c0.76-0.023 1.377 0.259 1.741 0.935 0.234 0.418 0.372 0.917 0.372 1.448 0 0.475-0.11 0.925-0.307 1.325l0.008-0.018c-0.338 0.758-1.173 1.135-2.067 0.996-0.579-0.051-1.069-0.39-1.33-0.872l-0.004-0.009v2.444zM11.003 15.163c0.030 0.3 0.041 0.513 0.075 0.722 0.132 0.822 0.617 1.309 1.38 1.398 0.076 0.013 0.165 0.021 0.254 0.021 0.668 0 1.239-0.418 1.464-1.006l0.004-0.011c0.131-0.305 0.208-0.66 0.208-1.033 0-0.423-0.098-0.824-0.274-1.179l0.007 0.016c-0.246-0.54-0.781-0.909-1.403-0.909-0.076 0-0.151 0.006-0.224 0.016l0.008-0.001c-0.643 0.048-1.17 0.496-1.334 1.095l-0.002 0.011c-0.062 0.233-0.119 0.526-0.159 0.823l-0.004 0.039z"></path>
<path d="M21.535 15.998c-0.107 0.889-0.849 1.574-1.755 1.589l-0.002 0c-1.398 0.070-2.054-0.858-2.158-1.929-0.015-0.115-0.024-0.247-0.024-0.382 0-0.479 0.109-0.934 0.304-1.338l-0.008 0.019c0.314-0.643 0.962-1.078 1.713-1.078 0.093 0 0.185 0.007 0.274 0.020l-0.010-0.001c0.786 0.069 1.425 0.629 1.609 1.37l0.003 0.012c0.063 0.28 0.118 0.628 0.153 0.982l0.003 0.039h-3.674c-0.068 0.971 0.454 1.752 1.194 1.94 0.921 0.227 1.709-0.172 1.995-1.048 0.064-0.225 0.179-0.256 0.384-0.193zM17.963 14.988h3.284c-0.020-1.035-0.665-1.784-1.539-1.795-0.989-0.016-1.702 0.706-1.745 1.795z"></path>
<path d="M22.212 16.021h0.322c0.026 0.495 0.326 0.913 0.75 1.109l0.008 0.003c0.239 0.11 0.518 0.174 0.813 0.174 0.331 0 0.644-0.081 0.918-0.225l-0.011 0.005c0.271-0.124 0.456-0.393 0.456-0.705 0-0.019-0.001-0.038-0.002-0.057l0 0.003c0.001-0.011 0.001-0.025 0.001-0.038 0-0.306-0.195-0.566-0.468-0.662l-0.005-0.002c-0.354-0.132-0.731-0.204-1.092-0.32-0.433-0.124-0.797-0.261-1.148-0.422l0.050 0.021c-0.581-0.284-0.617-1.389 0.041-1.738 0.328-0.188 0.72-0.299 1.139-0.299 0.393 0 0.764 0.098 1.089 0.271l-0.012-0.006c0.362 0.203 0.602 0.584 0.602 1.021 0 0.059-0.004 0.118-0.013 0.175l0.001-0.006h-0.277c0-0.014-0.025-0.025-0.025-0.039-0.034-0.883-0.774-1.155-1.568-1.078-0.253 0.032-0.483 0.105-0.693 0.212l0.012-0.005c-0.237 0.11-0.398 0.346-0.398 0.619 0 0.022 0.001 0.043 0.003 0.064l-0-0.003c0.001 0.294 0.188 0.544 0.449 0.638l0.005 0.002c0.349 0.127 0.715 0.209 1.073 0.309 0.288 0.079 0.588 0.132 0.867 0.227 0.397 0.133 0.682 0.492 0.703 0.921l0 0.002c0.008 0.048 0.012 0.104 0.012 0.16 0 0.423-0.241 0.791-0.593 0.972l-0.006 0.003c-0.758 0.429-2.006 0.315-2.562-0.227-0.272-0.274-0.44-0.651-0.44-1.067 0-0.004 0-0.008 0-0.011v0.001z"></path>
<path d="M29.887 14.321h-0.302c0-0.041-0.016-0.077-0.020-0.111-0.011-0.471-0.35-0.86-0.797-0.948l-0.006-0.001c-0.164-0.049-0.352-0.077-0.546-0.077-0.262 0-0.511 0.051-0.74 0.143l0.013-0.005c-0.324 0.095-0.558 0.389-0.561 0.737v0c-0 0.007-0 0.016-0 0.024 0 0.334 0.23 0.614 0.54 0.692l0.005 0.001c0.454 0.141 0.919 0.227 1.38 0.354 0.177 0.043 0.324 0.089 0.467 0.143l-0.027-0.009c0.442 0.162 0.752 0.579 0.752 1.068 0 0.466-0.281 0.867-0.684 1.042l-0.007 0.003c-0.307 0.143-0.666 0.226-1.044 0.226-0.361 0-0.704-0.076-1.014-0.212l0.016 0.006c-0.507-0.223-0.855-0.721-0.855-1.3 0-0.026 0.001-0.053 0.002-0.079l-0 0.004h0.295c0.161 0.758 0.825 1.319 1.62 1.319 0.334 0 0.645-0.099 0.905-0.27l-0.006 0.004c0.261-0.138 0.437-0.408 0.437-0.719 0-0.014-0-0.027-0.001-0.041l0 0.002c0-0.009 0.001-0.020 0.001-0.031 0-0.308-0.199-0.57-0.475-0.664l-0.005-0.001c-0.354-0.132-0.731-0.202-1.092-0.318-0.435-0.122-0.802-0.258-1.156-0.418l0.051 0.021c-0.567-0.279-0.613-1.375 0.034-1.725 0.329-0.194 0.725-0.309 1.148-0.309 0.405 0 0.785 0.105 1.115 0.29l-0.012-0.006c0.349 0.211 0.578 0.588 0.578 1.019 0 0.051-0.003 0.102-0.009 0.151l0.001-0.006z"></path>
<path d="M10.118 17.475c-0.055 0.021-0.118 0.034-0.184 0.034-0.199 0-0.372-0.112-0.459-0.276l-0.001-0.003c-0.37-0.554-0.778-1.082-1.171-1.623l-0.17-0.227c-0.468 0.626-0.935 1.228-1.362 1.852-0.085 0.162-0.252 0.27-0.444 0.27-0.061 0-0.119-0.011-0.173-0.031l0.003 0.001 1.754-2.353-1.632-2.126c0.055-0.020 0.118-0.032 0.184-0.032 0.195 0 0.366 0.103 0.461 0.257l0.001 0.002c0.379 0.554 0.799 1.082 1.216 1.643 0.42-0.556 0.835-1.087 1.223-1.636 0.084-0.156 0.245-0.26 0.431-0.26 0.064 0 0.124 0.012 0.18 0.034l-0.003-0.001-0.633 0.84c-0.284 0.374-0.563 0.751-0.858 1.117-0.046 0.042-0.076 0.102-0.076 0.169s0.029 0.127 0.075 0.169l0 0c0.542 0.719 1.080 1.441 1.634 2.181z"></path>
<path d="M17.566 12.971v0.318c-0.032-0.002-0.070-0.004-0.108-0.004-0.909 0-1.645 0.737-1.645 1.645 0 0.020 0 0.041 0.001 0.061l-0-0.003q0 1.121 0 2.242v0.254h-0.325v-4.496h0.318v0.921c0.393-0.672 0.999-0.921 1.759-0.94z"></path>
<path d="M1.955 15.090c0.048-0.227 0.077-0.474 0.143-0.706 0.393-1.396 1.993-1.977 3.093-1.112 0.644 0.506 0.806 1.223 0.774 2.031h-3.631c-0.059 1.443 0.983 2.315 2.315 1.87 0.437-0.16 0.766-0.521 0.876-0.969l0.002-0.009c0.070-0.227 0.184-0.266 0.399-0.2-0.076 0.574-0.406 1.058-0.872 1.341l-0.008 0.005c-0.295 0.165-0.648 0.262-1.024 0.262-0.566 0-1.081-0.221-1.463-0.58l0.001 0.001c-0.313-0.351-0.518-0.804-0.558-1.304l-0.001-0.008c0-0.077-0.030-0.154-0.045-0.227q-0.002-0.202-0.002-0.395zM2.339 14.993h3.284c-0.020-1.046-0.681-1.788-1.561-1.795-0.98-0.014-1.682 0.713-1.725 1.791z"></path>
</symbol>
<symbol id="icon-facebook" viewBox="0 0 32 32">
<title>facebook</title>
<path d="M11.761 6.197c0 0.806 0 4.406 0 4.406h-3.228v5.387h3.228v16.009h6.631v-16.009h4.449c0 0 0.417-2.583 0.619-5.408-0.579 0-5.043 0-5.043 0s0-3.134 0-3.684c0-0.551 0.723-1.291 1.437-1.291 0.713 0 2.218 0 3.613 0 0-0.734 0-3.268 0-5.609-1.861 0-3.979 0-4.912 0-6.958-0-6.794 5.392-6.794 6.197z"></path>
</symbol>
<symbol id="icon-github" viewBox="0 0 32 32">
<title>github</title>
<path d="M0 16.393c0 1.45 0.136 2.762 0.407 3.935s0.647 2.193 1.127 3.059 1.090 1.627 1.831 2.285c0.741 0.657 1.544 1.195 2.41 1.612s1.854 0.756 2.965 1.017c1.111 0.261 2.245 0.443 3.403 0.548s2.431 0.156 3.818 0.156c1.398 0 2.676-0.052 3.834-0.156s2.295-0.287 3.411-0.548c1.116-0.261 2.11-0.6 2.981-1.017s1.68-0.954 2.426-1.612c0.746-0.657 1.361-1.419 1.846-2.285s0.863-1.886 1.134-3.059c0.271-1.174 0.407-2.486 0.407-3.935 0-2.587-0.866-4.825-2.597-6.713 0.094-0.25 0.18-0.535 0.258-0.853s0.151-0.772 0.219-1.361c0.068-0.59 0.042-1.27-0.078-2.042s-0.342-1.56-0.665-2.363l-0.235-0.047c-0.167-0.031-0.441-0.023-0.822 0.023s-0.824 0.141-1.33 0.282c-0.506 0.141-1.158 0.412-1.956 0.814s-1.64 0.905-2.527 1.51c-1.523-0.417-3.615-0.626-6.275-0.626-2.65 0-4.736 0.209-6.259 0.626-0.887-0.605-1.734-1.108-2.543-1.51s-1.453-0.673-1.932-0.814c-0.48-0.141-0.928-0.232-1.346-0.274s-0.681-0.055-0.79-0.039-0.196 0.034-0.258 0.055c-0.323 0.803-0.545 1.591-0.665 2.363s-0.146 1.453-0.078 2.042c0.068 0.589 0.141 1.043 0.219 1.361s0.164 0.603 0.258 0.853c-1.732 1.888-2.598 4.126-2.598 6.713zM3.928 20.32c0-1.502 0.683-2.879 2.050-4.131 0.407-0.376 0.881-0.66 1.424-0.853s1.155-0.303 1.839-0.329c0.683-0.026 1.338-0.021 1.964 0.016s1.398 0.086 2.316 0.149c0.918 0.063 1.711 0.094 2.379 0.094s1.46-0.031 2.378-0.094c0.918-0.063 1.69-0.112 2.316-0.149s1.28-0.042 1.964-0.016c0.683 0.026 1.296 0.136 1.839 0.329s1.017 0.477 1.424 0.853c1.367 1.231 2.050 2.608 2.050 4.131 0 0.897-0.112 1.693-0.337 2.386s-0.511 1.275-0.861 1.745c-0.349 0.469-0.834 0.869-1.455 1.197s-1.226 0.582-1.815 0.759c-0.59 0.177-1.346 0.316-2.269 0.415s-1.747 0.159-2.472 0.18c-0.725 0.021-1.646 0.031-2.762 0.031s-2.037-0.010-2.762-0.031c-0.725-0.021-1.549-0.081-2.472-0.18s-1.68-0.237-2.269-0.415c-0.589-0.178-1.194-0.431-1.815-0.759s-1.106-0.728-1.455-1.197c-0.349-0.469-0.636-1.051-0.861-1.745s-0.337-1.489-0.337-2.386zM20 20.005c0 1.657 0.895 3 2 3s2-1.343 2-3-0.895-3-2-3-2 1.343-2 3zM8 20.005c0 1.657 0.895 3 2 3s2-1.343 2-3-0.895-3-2-3-2 1.343-2 3z"></path>
</symbol>
<symbol id="icon-graphql" viewBox="0 0 32 32">
<title>graphql</title>
<path d="M4.353 24.389l-1.175-0.678 13.087-22.666 1.175 0.678z"></path>
<path d="M2.909 21.9h26.174v1.357h-26.174z"></path>
<path d="M16.519 30.221l-13.092-7.559 0.678-1.175 13.092 7.559zM27.891 10.521l-13.092-7.559 0.678-1.175 13.092 7.559z"></path>
<path d="M4.109 10.515l-0.678-1.175 13.092-7.559 0.678 1.175z"></path>
<path d="M27.65 24.389l-13.087-22.666 1.175-0.678 13.087 22.666zM3.947 8.441h1.357v15.117h-1.357zM26.697 8.441h1.357v15.117h-1.357z"></path>
<path d="M16.288 29.647l-0.592-1.026 11.386-6.574 0.592 1.026z"></path>
<path d="M29.851 24c-0.784 1.365-2.533 1.83-3.898 1.046s-1.83-2.533-1.046-3.898 2.533-1.83 3.898-1.046c1.373 0.793 1.839 2.533 1.046 3.898zM7.085 10.852c-0.784 1.365-2.533 1.83-3.898 1.046s-1.83-2.533-1.046-3.898 2.533-1.83 3.898-1.046c1.365 0.793 1.83 2.533 1.046 3.898zM2.149 24c-0.784-1.365-0.319-3.105 1.046-3.898 1.365-0.784 3.105-0.319 3.898 1.046 0.784 1.365 0.319 3.105-1.046 3.898-1.373 0.784-3.113 0.319-3.898-1.046zM24.915 10.852c-0.784-1.365-0.319-3.105 1.046-3.898 1.365-0.784 3.105-0.319 3.898 1.046 0.784 1.365 0.319 3.105-1.046 3.898-1.365 0.784-3.113 0.319-3.898-1.046zM16 32c-1.577 0-2.852-1.275-2.852-2.852s1.275-2.852 2.852-2.852 2.852 1.275 2.852 2.852c0 1.569-1.275 2.852-2.852 2.852zM16 5.704c-1.577 0-2.852-1.275-2.852-2.852s1.275-2.852 2.852-2.852 2.852 1.275 2.852 2.852-1.275 2.852-2.852 2.852z"></path>
</symbol>
<symbol id="icon-handlebarsjs" viewBox="0 0 32 32">
<title>handlebarsjs</title>
<path d="M3.339 15.658c0.276-0.228 0.483-0.532 0.588-0.88l0.003-0.013c0.044-0.112 0.070-0.242 0.070-0.377 0-0.441-0.27-0.818-0.654-0.976l-0.007-0.003c-1.733-0.878-2.852 0.686-3.014 1.051s-0.448 0.942-0.267 2.26 0.817 2.535 2.806 3.014c0.573 0.139 1.23 0.218 1.906 0.218 1.364 0 2.653-0.324 3.793-0.9l-0.048 0.022c1.755-0.836 5.048-2.305 5.88-2.452 0.497-0.127 1.069-0.202 1.658-0.207l0.003-0v-2.004c-0.801-1.42-2.3-2.364-4.019-2.364-0.153 0-0.303 0.007-0.452 0.022l0.019-0.002c-3.176 0.249-4.438 1.884-5.21 2.584s-2.208 2.351-3.168 2.061-1.232-1.477-0.893-1.842 0.607-0.301 0.817 0c0.119 0.218 0.189 0.477 0.189 0.753 0 0.012-0 0.024-0 0.036l0-0.002z"></path>
<path d="M28.661 15.658c-0.276-0.228-0.483-0.532-0.588-0.88l-0.003-0.013c-0.044-0.112-0.070-0.242-0.070-0.377 0-0.441 0.27-0.818 0.654-0.976l0.007-0.003c1.733-0.878 2.852 0.686 3.014 1.051s0.448 0.942 0.267 2.26-0.817 2.535-2.806 3.014c-0.573 0.139-1.23 0.218-1.906 0.218-1.364 0-2.653-0.324-3.793-0.9l0.048 0.022c-1.755-0.836-5.048-2.305-5.88-2.452-0.497-0.127-1.069-0.202-1.658-0.207l-0.003-0v-2.004c0.801-1.42 2.3-2.364 4.019-2.364 0.153 0 0.303 0.007 0.452 0.022l-0.019-0.002c3.176 0.249 4.438 1.884 5.21 2.584s2.207 2.351 3.168 2.061 1.232-1.477 0.893-1.842-0.607-0.301-0.817 0c-0.119 0.218-0.189 0.477-0.189 0.753 0 0.012 0 0.024 0 0.036l-0-0.002z"></path>
</symbol>
<symbol id="icon-html5" viewBox="0 0 32 32">
<title>html5</title>
<path d="M1.688 0l2.767 28.844 11.572 3.156 11.573-3.156 2.767-28.844zM25.842 27.364l-9.816 2.677-9.815-2.677-2.444-25.474h24.518z"></path>
<path d="M7.915 17.246h11.141l-0.184 2.871-2.773 0.905-2.921-0.902v-1.565h-5.364v5.389l8.283 2.576 7.718-2.245 1.005-12.182-12.122-0.139-0.14-1.253 12.304 0v-5.171h-18.256zM22.973 7.419v1.391l-12.527-0.001 0.561 5.015 11.764 0.135-0.731 8.864-5.923 1.723-6.411-1.994v-2.107h1.583v1.069l4.827 1.491 4.561-1.489 0.395-6.16h-11.466l-0.886-7.937z"></path>
</symbol>
<symbol id="icon-java" viewBox="0 0 32 32">
<title>java</title>
<path d="M15.842 5.929c-1.479 1.040-3.154 2.219-4.052 4.169-1.56 3.402 3.191 7.113 3.394 7.27 0.047 0.036 0.104 0.054 0.16 0.054 0.060 0 0.12-0.020 0.168-0.061 0.094-0.079 0.121-0.213 0.064-0.322-0.017-0.033-1.723-3.346-1.659-5.722 0.022-0.828 1.181-1.767 2.407-2.761 1.123-0.91 2.396-1.942 3.141-3.15 1.635-2.657-0.182-5.27-0.201-5.296-0.072-0.101-0.205-0.138-0.319-0.088s-0.177 0.173-0.151 0.295c0.004 0.017 0.357 1.745-0.626 3.525-0.405 0.736-1.296 1.362-2.326 2.087z"></path>
<path d="M22.071 7.101c0.104-0.079 0.135-0.222 0.072-0.336s-0.201-0.165-0.323-0.118c-0.251 0.095-6.151 2.37-6.151 5.117 0 1.894 0.809 2.895 1.4 3.626 0.232 0.287 0.432 0.534 0.498 0.745 0.186 0.609-0.254 1.71-0.439 2.082-0.053 0.107-0.027 0.237 0.063 0.315 0.049 0.042 0.11 0.064 0.171 0.064 0.052 0 0.105-0.016 0.15-0.047 0.101-0.071 2.479-1.752 2.053-3.777-0.159-0.77-0.537-1.332-0.871-1.829-0.517-0.769-0.891-1.324-0.324-2.35 0.664-1.196 3.671-3.469 3.701-3.491z"></path>
<path d="M6.714 18.64c-0.101 0.303-0.053 0.603 0.138 0.869 0.64 0.888 2.905 1.377 6.379 1.377 0 0 0 0 0 0 0.471 0 0.968-0.009 1.477-0.027 5.555-0.199 7.615-1.929 7.7-2.003 0.093-0.080 0.117-0.214 0.060-0.322s-0.182-0.162-0.3-0.13c-1.956 0.534-5.609 0.724-8.143 0.724-2.835 0-4.279-0.204-4.633-0.355 0.181-0.249 1.3-0.694 2.686-0.966 0.133-0.026 0.224-0.148 0.21-0.283s-0.126-0.237-0.261-0.237c-0.813 0-4.888 0.065-5.314 1.353z"></path>
<path d="M25.301 16.857c-1.146 0-2.232 0.574-2.278 0.599-0.106 0.057-0.16 0.178-0.131 0.295s0.134 0.198 0.254 0.199c0.024 0 2.444 0.020 2.663 1.402 0.194 1.193-2.289 3.125-3.263 3.769-0.105 0.070-0.146 0.204-0.097 0.32 0.041 0.099 0.138 0.161 0.242 0.161 0.018 0 0.037-0.002 0.055-0.006 0.231-0.049 5.65-1.244 5.077-4.399-0.35-1.934-1.565-2.34-2.523-2.34z"></path>
<path d="M21.584 22.735c0.019-0.101-0.023-0.204-0.107-0.263l-1.299-0.91c-0.063-0.044-0.143-0.058-0.218-0.039-0.014 0.004-1.372 0.361-3.345 0.58-0.783 0.088-1.66 0.134-2.536 0.134-1.972 0-3.262-0.232-3.45-0.402-0.025-0.048-0.017-0.069-0.013-0.082 0.034-0.095 0.217-0.208 0.335-0.252 0.13-0.048 0.2-0.19 0.16-0.322s-0.177-0.211-0.312-0.179c-1.303 0.315-1.941 0.754-1.895 1.307 0.082 0.98 2.353 1.483 4.273 1.617 0.276 0.019 0.575 0.029 0.887 0.029 0 0 0 0 0.001 0 3.192 0 7.284-1.002 7.325-1.012 0.1-0.025 0.176-0.105 0.195-0.206z"></path>
<path d="M11.788 24.839c0.098-0.064 0.142-0.186 0.107-0.298s-0.14-0.186-0.257-0.184c-0.175 0.005-1.709 0.074-1.817 1.051-0.033 0.292 0.051 0.559 0.249 0.793 0.551 0.653 2.038 1.041 4.546 1.187 0.297 0.018 0.598 0.027 0.896 0.027 3.188 0 5.336-0.998 5.426-1.041 0.087-0.041 0.145-0.127 0.15-0.223s-0.043-0.188-0.125-0.238l-1.642-1.003c-0.057-0.035-0.125-0.046-0.19-0.033-0.010 0.002-1.053 0.218-2.627 0.432-0.298 0.040-0.671 0.061-1.108 0.061-1.572 0-3.32-0.257-3.656-0.425-0.005-0.032 0.001-0.071 0.048-0.106z"></path>
<path d="M14.025 30.428c7.303-0.006 11.223-1.305 11.978-2.122 0.267-0.289 0.296-0.563 0.273-0.742-0.056-0.44-0.457-0.709-0.502-0.739-0.11-0.070-0.257-0.052-0.342 0.047s-0.087 0.243-0.002 0.341c0.046 0.059 0.073 0.158-0.062 0.293-0.302 0.282-3.347 1.138-8.416 1.395-0.694 0.036-1.423 0.054-2.165 0.055-4.539 0-7.861-0.622-8.297-0.984 0.168-0.241 1.343-0.627 2.593-0.845 0.141-0.025 0.236-0.157 0.214-0.299s-0.152-0.238-0.294-0.22c-0.035 0.005-0.155 0.012-0.293 0.020-2.062 0.126-4.444 0.407-4.569 1.469-0.038 0.324 0.058 0.618 0.286 0.873 0.557 0.626 2.157 1.457 9.597 1.457 0 0 0 0 0 0z"></path>
<path d="M27.438 28.536c-0.103-0.048-0.225-0.024-0.302 0.059-0.011 0.012-1.109 1.16-4.41 1.834-1.264 0.253-3.636 0.382-7.052 0.382-3.422 0-6.677-0.135-6.71-0.136-0.136-0.007-0.252 0.092-0.271 0.226s0.068 0.26 0.199 0.291c0.034 0.008 3.446 0.807 8.111 0.807 2.238 0 4.415-0.182 6.472-0.54 3.835-0.672 4.104-2.574 4.113-2.655 0.013-0.113-0.047-0.221-0.15-0.269z"></path>
</symbol>
<symbol id="icon-javascript" viewBox="0 0 32 32">
<title>javascript</title>
<path d="M30.495 0.22c-0.127-0.14-0.307-0.22-0.495-0.22h-28c-0.189 0-0.368 0.080-0.495 0.22-0.127 0.139-0.188 0.325-0.169 0.513l2.667 26.667c0.025 0.26 0.203 0.483 0.452 0.565l12 4c0.068 0.024 0.14 0.035 0.211 0.035 0.080 0 0.159-0.015 0.236-0.043l10.667-4c0.237-0.088 0.404-0.305 0.429-0.557l2.667-26.667c0.019-0.187-0.043-0.375-0.169-0.513zM26.709 26.855l-10.057 3.772-11.367-3.789-2.551-25.504h26.527l-2.552 25.521z"></path>
<path d="M25.191 6.923c-0.127-0.161-0.32-0.256-0.525-0.256h-6.667c-0.368 0-0.667 0.299-0.667 0.667v8c0 0.368 0.299 0.667 0.667 0.667h4.535l-1.12 6.159-3.625 1.209c-0.349 0.116-0.537 0.493-0.421 0.843 0.093 0.28 0.353 0.456 0.632 0.456 0.069 0 0.14-0.011 0.212-0.033l4-1.333c0.231-0.077 0.401-0.273 0.444-0.513l1.333-7.333c0.036-0.195-0.017-0.395-0.144-0.547s-0.315-0.24-0.512-0.24h-4.667v-6.667h5.145l-0.459 1.839c-0.089 0.357 0.128 0.719 0.485 0.808 0.353 0.088 0.719-0.128 0.808-0.485l0.667-2.667c0.049-0.2 0.005-0.411-0.121-0.572z"></path>
<path d="M15.331 6.667h-8c-0.368 0-0.667 0.299-0.667 0.667s0.299 0.667 0.667 0.667h7.333v15.116l-3.425-0.979-0.587-2.935c-0.072-0.36-0.417-0.596-0.784-0.523-0.36 0.072-0.595 0.423-0.523 0.784l0.667 3.333c0.049 0.245 0.231 0.441 0.471 0.511l4.667 1.333c0.060 0.017 0.121 0.025 0.183 0.025 0.143 0 0.284-0.047 0.4-0.135 0.167-0.125 0.265-0.323 0.265-0.532v-16.667c-0-0.368-0.299-0.667-0.667-0.667z"></path>
</symbol>
<symbol id="icon-jquery" viewBox="0 0 32 32">
<title>jquery</title>
<path d="M2.144 7.705c-2.832 4.070-2.479 9.364-0.316 13.689 0.051 0.104 0.105 0.206 0.158 0.308 0.034 0.065 0.066 0.131 0.101 0.195 0.020 0.038 0.042 0.075 0.063 0.112 0.037 0.069 0.075 0.134 0.113 0.202 0.067 0.119 0.136 0.236 0.207 0.354 0.039 0.065 0.078 0.129 0.118 0.194 0.078 0.126 0.158 0.25 0.24 0.375 0.034 0.053 0.067 0.106 0.102 0.158 0.113 0.168 0.228 0.336 0.347 0.501 0.003 0.004 0.006 0.009 0.010 0.013 0.019 0.027 0.039 0.052 0.058 0.079 0.103 0.142 0.209 0.282 0.316 0.421 0.039 0.051 0.079 0.101 0.119 0.152 0.096 0.12 0.193 0.24 0.292 0.359 0.037 0.045 0.074 0.090 0.112 0.134 0.133 0.157 0.269 0.313 0.407 0.465 0.003 0.002 0.006 0.006 0.008 0.008 0.006 0.007 0.011 0.011 0.016 0.017 0.135 0.148 0.274 0.292 0.414 0.436 0.044 0.045 0.088 0.090 0.133 0.134 0.109 0.109 0.219 0.217 0.33 0.324 0.045 0.043 0.090 0.087 0.135 0.129 0.149 0.14 0.299 0.278 0.453 0.412 0.003 0.002 0.005 0.004 0.007 0.006 0.026 0.023 0.053 0.045 0.079 0.067 0.135 0.117 0.273 0.233 0.411 0.348 0.056 0.046 0.114 0.090 0.17 0.136 0.113 0.090 0.228 0.18 0.343 0.268 0.061 0.046 0.122 0.093 0.183 0.139 0.127 0.094 0.255 0.186 0.385 0.276 0.047 0.034 0.093 0.067 0.14 0.1 0.013 0.009 0.025 0.018 0.039 0.027 0.123 0.085 0.248 0.166 0.374 0.247 0.054 0.036 0.107 0.073 0.162 0.108 0.192 0.122 0.388 0.242 0.585 0.358 0.053 0.031 0.108 0.061 0.162 0.091 0.145 0.084 0.291 0.166 0.439 0.246 0.080 0.043 0.162 0.084 0.243 0.125 0.104 0.055 0.208 0.11 0.314 0.163 0.024 0.012 0.049 0.023 0.073 0.035 0.043 0.021 0.086 0.041 0.129 0.062 0.165 0.079 0.331 0.156 0.498 0.231 0.036 0.016 0.070 0.032 0.105 0.047 0.192 0.084 0.386 0.164 0.581 0.241 0.047 0.019 0.094 0.037 0.141 0.056 0.181 0.070 0.364 0.139 0.548 0.203 0.023 0.008 0.046 0.016 0.069 0.024 0.202 0.070 0.406 0.136 0.611 0.2 0.049 0.014 0.098 0.030 0.148 0.044 0.209 0.063 0.416 0.139 0.631 0.178 13.694 2.497 17.671-8.229 17.671-8.229-3.341 4.352-9.271 5.5-14.889 4.222-0.213-0.048-0.419-0.114-0.627-0.176-0.053-0.016-0.104-0.032-0.156-0.047-0.203-0.062-0.404-0.128-0.604-0.197-0.027-0.010-0.055-0.020-0.083-0.030-0.179-0.063-0.356-0.129-0.532-0.197-0.050-0.020-0.1-0.039-0.149-0.059-0.193-0.076-0.385-0.156-0.575-0.239-0.039-0.017-0.076-0.034-0.115-0.051-0.163-0.074-0.324-0.148-0.485-0.226-0.046-0.022-0.093-0.044-0.14-0.067-0.126-0.061-0.251-0.127-0.375-0.191-0.083-0.044-0.168-0.085-0.25-0.131-0.152-0.081-0.301-0.166-0.449-0.252-0.050-0.028-0.101-0.055-0.152-0.085-0.197-0.116-0.392-0.236-0.585-0.358-0.053-0.034-0.105-0.070-0.158-0.105-0.14-0.090-0.279-0.182-0.416-0.277-0.046-0.031-0.089-0.064-0.134-0.094-0.133-0.094-0.264-0.189-0.394-0.285-0.059-0.044-0.117-0.088-0.175-0.132-0.119-0.091-0.238-0.183-0.355-0.278-0.053-0.042-0.106-0.085-0.158-0.127-0.149-0.123-0.297-0.246-0.442-0.373-0.015-0.013-0.032-0.027-0.049-0.041-0.158-0.139-0.312-0.28-0.465-0.423-0.044-0.042-0.088-0.084-0.131-0.126-0.113-0.108-0.225-0.216-0.334-0.328-0.044-0.044-0.088-0.087-0.131-0.131-0.139-0.143-0.276-0.287-0.41-0.434-0.007-0.007-0.014-0.014-0.020-0.022-0.142-0.155-0.28-0.314-0.416-0.474-0.037-0.044-0.073-0.086-0.109-0.129-0.101-0.122-0.202-0.245-0.299-0.37-0.037-0.045-0.073-0.091-0.11-0.137-0.118-0.153-0.233-0.305-0.346-0.46-3.119-4.255-4.24-10.123-1.747-14.943z"></path>
<path d="M10.934 4.277c-2.048 2.947-1.937 6.891-0.339 10.008 0.268 0.523 0.569 1.029 0.906 1.512 0.307 0.44 0.647 0.963 1.054 1.316 0.148 0.163 0.302 0.321 0.459 0.477 0.040 0.041 0.080 0.080 0.121 0.119 0.153 0.148 0.309 0.294 0.469 0.436 0.007 0.005 0.012 0.012 0.019 0.017 0.002 0.002 0.003 0.002 0.005 0.004 0.178 0.156 0.362 0.306 0.548 0.454 0.041 0.032 0.083 0.065 0.124 0.097 0.187 0.143 0.378 0.284 0.573 0.419 0.006 0.004 0.011 0.008 0.017 0.012 0.086 0.060 0.174 0.115 0.262 0.172 0.042 0.027 0.082 0.056 0.124 0.082 0.14 0.090 0.281 0.177 0.425 0.26 0.020 0.012 0.040 0.023 0.060 0.035 0.124 0.071 0.25 0.142 0.376 0.21 0.044 0.025 0.089 0.046 0.134 0.070 0.087 0.046 0.174 0.092 0.263 0.136 0.013 0.007 0.027 0.012 0.040 0.018 0.18 0.089 0.362 0.174 0.548 0.255 0.040 0.017 0.081 0.033 0.121 0.050 0.148 0.063 0.299 0.124 0.45 0.182 0.064 0.024 0.129 0.047 0.192 0.070 0.137 0.051 0.274 0.097 0.413 0.143 0.063 0.020 0.124 0.041 0.187 0.060 0.197 0.061 0.391 0.139 0.597 0.172 10.573 1.752 13.014-6.389 13.014-6.389-2.2 3.169-6.461 4.681-11.008 3.501-0.202-0.053-0.401-0.111-0.599-0.173-0.061-0.018-0.12-0.038-0.18-0.058-0.141-0.046-0.28-0.094-0.419-0.144-0.063-0.023-0.127-0.046-0.189-0.070-0.152-0.058-0.302-0.119-0.451-0.182-0.041-0.017-0.082-0.033-0.122-0.051-0.187-0.081-0.37-0.167-0.552-0.256-0.093-0.046-0.185-0.094-0.277-0.141-0.053-0.027-0.107-0.055-0.16-0.082-0.118-0.064-0.235-0.13-0.35-0.197-0.027-0.016-0.056-0.031-0.084-0.047-0.143-0.084-0.284-0.17-0.424-0.259-0.043-0.027-0.085-0.057-0.128-0.085-0.092-0.060-0.184-0.12-0.275-0.182-0.195-0.134-0.384-0.275-0.571-0.418-0.043-0.034-0.086-0.067-0.129-0.101-1.99-1.572-3.568-3.719-4.318-6.154-0.786-2.525-0.617-5.36 0.745-7.661z"></path>
<path d="M18.326 1.715c-1.207 1.777-1.326 3.983-0.488 5.945 0.883 2.083 2.693 3.716 4.806 4.491 0.087 0.032 0.174 0.061 0.262 0.091 0.039 0.012 0.077 0.025 0.116 0.036 0.124 0.039 0.248 0.085 0.377 0.109 5.838 1.128 7.421-2.996 7.843-3.603-1.387 1.997-3.718 2.476-6.578 1.782-0.226-0.055-0.474-0.137-0.692-0.214-0.279-0.1-0.554-0.213-0.822-0.341-0.508-0.244-0.992-0.54-1.441-0.879-2.559-1.942-4.149-5.646-2.479-8.663z"></path>
</symbol>
<symbol id="icon-linkedin" viewBox="0 0 32 32">
<title>linkedin</title>
<path d="M32 19.458v11.831h-6.859v-11.038c0-2.773-0.992-4.665-3.475-4.665-1.895 0-3.023 1.275-3.519 2.509-0.181 0.441-0.227 1.055-0.227 1.672v11.522h-6.861c0 0 0.092-18.695 0-20.632h6.86v2.925c-0.014 0.022-0.032 0.045-0.045 0.067h0.045v-0.067c0.911-1.404 2.539-3.409 6.183-3.409 4.514-0 7.898 2.949 7.898 9.286zM3.882 0.711c-2.347 0-3.882 1.54-3.882 3.564 0 1.98 1.491 3.567 3.791 3.567h0.046c2.393 0 3.881-1.586 3.881-3.567-0.045-2.025-1.488-3.564-3.835-3.564zM0.407 31.289h6.858v-20.632h-6.858v20.632z"></path>
</symbol>
<symbol id="icon-love" viewBox="0 0 32 32">
<title>love</title>
<path d="M15.904 6.481c1.292-3.061 4.242-5.2 7.674-5.2 4.623 0 7.952 3.955 8.371 8.668 0 0 0.226 1.17-0.271 3.276-0.677 2.868-2.269 5.417-4.415 7.362l-11.358 10.134-11.167-10.134c-2.146-1.944-3.738-4.493-4.415-7.362-0.497-2.106-0.271-3.276-0.271-3.276 0.419-4.713 3.748-8.668 8.371-8.668 3.432 0 6.191 2.14 7.482 5.201z"></path>
</symbol>
<symbol id="icon-mongoose" viewBox="0 0 32 32">
<title>mongoose</title>
<path d="M15.9 0.087c0.244 0.453 0.575 1.168 0.854 1.603 0.192 0.296 0.401 0.558 0.645 0.802 0.715 0.715 1.394 1.464 2.004 2.266 1.447 1.9 2.423 4.009 3.12 6.292 0.418 1.394 0.645 2.824 0.662 4.27 0.070 4.322-1.412 8.035-4.41 11.12-0.488 0.488-1.011 0.941-1.569 1.342-0.296 0-0.436-0.227-0.558-0.436-0.227-0.383-0.366-0.819-0.436-1.255-0.105-0.523-0.174-1.046-0.139-1.586 0-0.087 0-0.157 0-0.244-0.017-0.052-0.279-24.053-0.174-24.175z"></path>
<path d="M15.9 0.034c-0.035-0.070-0.070-0.017-0.105 0.017 0.017 0.349-0.105 0.662-0.296 0.959-0.209 0.296-0.488 0.523-0.767 0.767-1.551 1.342-2.771 2.963-3.747 4.776-1.29 2.44-1.97 5.055-2.161 7.808-0.087 0.993 0.314 4.497 0.627 5.508 0.854 2.684 2.388 4.933 4.375 6.885 0.488 0.471 1.011 0.906 1.551 1.325 0.157 0 0.174-0.139 0.209-0.244 0.070-0.227 0.122-0.453 0.157-0.68 0.157-0.871 0.244-1.743 0.349-2.614 0-0.105-0.139-24.419-0.192-24.506z"></path>
<path d="M16.754 28.845c0.035-0.401 0.227-0.732 0.436-1.063-0.209-0.087-0.366-0.261-0.488-0.453-0.105-0.174-0.192-0.383-0.261-0.575-0.244-0.732-0.296-1.499-0.366-2.248 0-0.070 0-0.157 0-0.227s0-0.157 0-0.227c-0.087 0.070-0.105 0.662-0.105 0.749-0.052 0.802-0.157 1.586-0.314 2.353-0.052 0.314-0.087 0.627-0.279 0.906 0 0.035 0 0.070 0.017 0.122 0.314 0.924 0.401 1.865 0.453 2.824v0.349c0 0.418-0.017 0.331 0.331 0.471 0.139 0.052 0.296 0.070 0.436 0.174 0.105 0 0.122-0.087 0.122-0.157-0.017-0.192-0.052-0.383-0.052-0.575 0-0.54-0.017-1.063 0-1.604-0.017-0.279 0.035-0.558 0.070-0.819z"></path>
</symbol>
<symbol id="icon-nodejs" viewBox="0 0 32 32">
<title>nodejs</title>
<path d="M14.656 0.427c0.791-0.453 1.82-0.455 2.61 0 3.974 2.245 7.949 4.488 11.923 6.734 0.747 0.421 1.247 1.253 1.24 2.114v13.51c0.006 0.897-0.544 1.748-1.332 2.16-3.961 2.233-7.92 4.469-11.88 6.702-0.807 0.461-1.857 0.426-2.639-0.073-1.188-0.688-2.377-1.373-3.565-2.061-0.243-0.145-0.516-0.26-0.688-0.495 0.152-0.204 0.422-0.23 0.642-0.319 0.496-0.158 0.951-0.411 1.406-0.656 0.115-0.079 0.256-0.049 0.366 0.022 1.015 0.582 2.022 1.181 3.041 1.758 0.217 0.125 0.437-0.041 0.623-0.145 3.887-2.197 7.779-4.385 11.665-6.583 0.144-0.069 0.224-0.222 0.212-0.38 0.003-4.457 0.001-8.914 0.001-13.371 0.016-0.179-0.087-0.344-0.249-0.417-3.947-2.223-7.892-4.449-11.839-6.673-0.141-0.096-0.324-0.097-0.465-0.001-3.947 2.224-7.891 4.453-11.838 6.675-0.161 0.073-0.269 0.235-0.25 0.415 0.001 4.457 0 8.914 0 13.371-0.014 0.158 0.071 0.307 0.215 0.375 1.053 0.597 2.108 1.19 3.162 1.785 0.594 0.32 1.323 0.509 1.977 0.265 0.577-0.207 0.982-0.796 0.971-1.409 0.005-4.431-0.003-8.862 0.004-13.292-0.014-0.197 0.172-0.359 0.363-0.341 0.506-0.003 1.013-0.007 1.519 0.001 0.211-0.005 0.357 0.207 0.33 0.405-0.002 4.459 0.005 8.918-0.003 13.376 0.001 1.188-0.487 2.481-1.586 3.063-1.354 0.701-3.028 0.553-4.365-0.12-1.158-0.578-2.263-1.26-3.401-1.879-0.791-0.409-1.337-1.264-1.332-2.16v-13.51c-0.008-0.879 0.512-1.726 1.282-2.141 3.96-2.235 7.92-4.472 11.88-6.708z"></path>
<path d="M18.111 9.785c1.727-0.111 3.576-0.066 5.131 0.785 1.203 0.652 1.87 2.021 1.892 3.358-0.034 0.18-0.222 0.28-0.394 0.267-0.501-0.001-1.002 0.007-1.504-0.003-0.213 0.008-0.336-0.188-0.363-0.376-0.144-0.64-0.493-1.273-1.095-1.582-0.924-0.463-1.996-0.44-3.004-0.43-0.736 0.039-1.527 0.103-2.15 0.536-0.479 0.328-0.624 0.989-0.453 1.522 0.161 0.383 0.603 0.506 0.964 0.62 2.082 0.544 4.287 0.49 6.329 1.207 0.845 0.292 1.672 0.86 1.962 1.745 0.378 1.186 0.213 2.604-0.631 3.556-0.684 0.784-1.681 1.21-2.675 1.442-1.323 0.295-2.695 0.302-4.038 0.171-1.263-0.144-2.577-0.476-3.552-1.336-0.834-0.724-1.241-1.852-1.201-2.941 0.010-0.184 0.193-0.312 0.369-0.297 0.505-0.004 1.009-0.006 1.514 0.001 0.202-0.014 0.351 0.16 0.361 0.35 0.093 0.61 0.322 1.249 0.854 1.611 1.026 0.662 2.313 0.616 3.487 0.635 0.973-0.043 2.065-0.056 2.859-0.699 0.419-0.367 0.543-0.98 0.43-1.508-0.123-0.446-0.589-0.653-0.989-0.789-2.055-0.65-4.285-0.414-6.32-1.149-0.826-0.292-1.625-0.844-1.942-1.693-0.443-1.201-0.24-2.687 0.693-3.607 0.909-0.915 2.222-1.268 3.469-1.394z"></path>
</symbol>
<symbol id="icon-pug" viewBox="0 0 32 32">
<title>pug</title>
<path d="M11.139 17.746c0.957-0.597 1.25-1.862 0.653-2.82-0.106-0.169-0.23-0.31-0.368-0.42 0.179-0.282 0.294-0.603 0.333-0.946 0.078-0.682-0.156-1.351-0.641-1.836-0.235-0.235-0.616-0.235-0.851 0s-0.235 0.616 0 0.85c0.224 0.224 0.332 0.534 0.296 0.849s-0.211 0.592-0.48 0.76c0 0-1.581 1.018-1.815 1.407-0.28 0.466-0.261 1 0.052 1.502 0.388 0.621 1.056 0.963 1.74 0.963 0.37 0 0.744-0.1 1.080-0.31zM9.339 16.456c-0.096-0.154-0.069-0.199-0.041-0.246 0.076-0.127 0.272-0.289 0.581-0.482s0.541-0.297 0.689-0.31c0.009-0.001 0.019-0.002 0.028-0.002 0.046 0 0.095 0.019 0.175 0.147 0.246 0.395 0.126 0.916-0.269 1.163s-0.916 0.126-1.163-0.269z"></path>
<path d="M21.517 14.183c-0.269-0.168-0.444-0.445-0.48-0.76s0.072-0.625 0.296-0.849c0.235-0.235 0.235-0.616 0-0.85s-0.616-0.235-0.851 0c-0.485 0.485-0.719 1.154-0.641 1.836 0.039 0.343 0.154 0.664 0.333 0.946-0.138 0.111-0.262 0.251-0.368 0.42-0.597 0.957-0.305 2.222 0.653 2.82 0.336 0.21 0.71 0.31 1.080 0.31 0.683 0 1.352-0.341 1.74-0.963 0.313-0.502 0.332-1.036 0.052-1.502-0.234-0.39-1.815-1.407-1.815-1.407zM22.26 16.456c-0.246 0.395-0.768 0.516-1.163 0.269s-0.516-0.768-0.269-1.163c0.080-0.128 0.129-0.147 0.175-0.147 0.009 0 0.019 0.001 0.028 0.002 0.148 0.013 0.379 0.117 0.689 0.31s0.505 0.355 0.581 0.482c0.028 0.047 0.055 0.092-0.041 0.246z"></path>
<path d="M12.581 11.671c0.268 0.268 0.416 0.625 0.416 1.005s-0.148 0.736-0.416 1.005c-0.235 0.235-0.235 0.616 0 0.85 0.117 0.117 0.271 0.176 0.425 0.176s0.308-0.059 0.425-0.176c0.495-0.495 0.768-1.154 0.768-1.855s-0.273-1.36-0.768-1.855l-1.153-1.153c-0.235-0.235-0.616-0.235-0.851 0s-0.235 0.616 0 0.85l1.153 1.153z"></path>
<path d="M18.993 14.707c0.154 0 0.308-0.059 0.425-0.176 0.235-0.235 0.235-0.616 0-0.85-0.268-0.268-0.416-0.625-0.416-1.005s0.148-0.736 0.416-1.005l1.153-1.153c0.235-0.235 0.235-0.616 0-0.85s-0.616-0.235-0.851 0l-1.153 1.153c-0.495 0.495-0.768 1.154-0.768 1.855s0.273 1.36 0.768 1.855c0.117 0.117 0.271 0.176 0.425 0.176z"></path>
<path d="M31.824 9.822c-2.671-2.671-6.219-4.244-9.991-4.43-1.625-0.079-3.238 0.101-4.798 0.534-0.336-0.021-0.681-0.032-1.034-0.032s-0.699 0.011-1.036 0.031c-1.56-0.433-3.173-0.613-4.797-0.534-3.772 0.186-7.32 1.76-9.991 4.43-0.202 0.202-0.234 0.518-0.077 0.756l3.307 5.018c0.112 0.171 0.302 0.27 0.502 0.27 0.033 0 0.066-0.003 0.1-0.008 0.235-0.040 0.424-0.214 0.483-0.445l0.25-0.981 0.93 1.101c-0.066 0.719-0.099 1.482-0.099 2.292 0 3.206 1.482 4.661 3.575 6.366 0.206 0.168 0.424 0.332 0.648 0.488 0 0 0 0 0 0 1.83 1.274 3.976 1.947 6.205 1.947s4.375-0.673 6.205-1.947l0.309-0.215c0.012-0.008 0.023-0.017 0.034-0.026 2.082-1.681 3.88-3.134 3.88-6.614 0-0.808-0.034-1.57-0.102-2.288l0.933-1.104 0.25 0.981c0.059 0.231 0.248 0.405 0.483 0.445 0.033 0.006 0.067 0.008 0.1 0.008 0.2 0 0.39-0.1 0.502-0.27l3.307-5.018c0.157-0.238 0.125-0.554-0.077-0.756zM3.67 13.766l-0.008 0.033-2.284-3.465c1.841-1.717 4.093-2.895 6.526-3.43-0.716 0.621-1.366 1.319-1.943 2.086-1.076 1.432-1.847 3.039-2.291 4.776zM5.143 13.045c0.417-1.195 1.012-2.312 1.779-3.332 0.947-1.26 2.108-2.311 3.453-3.126 0.392-0.015 0.784-0.013 1.174 0.004-1.763 0.636-3.142 1.707-4.12 3.205-0.732 1.122-1.243 2.488-1.541 4.129l-0.744-0.881zM21.809 23.489l-0.291 0.203c-1.627 1.133-3.535 1.732-5.518 1.732s-3.891-0.599-5.518-1.732h0c-0.199-0.139-0.393-0.285-0.575-0.433-2.129-1.735-3.132-2.836-3.132-5.434 0-3.247 0.543-5.658 1.661-7.371 1.473-2.259 3.948-3.357 7.564-3.357 6.294 0 9.225 3.409 9.225 10.728 0 2.77-1.171 3.851-3.416 5.665zM24.532 9.794c-0.985-1.497-2.362-2.566-4.112-3.202 0.4-0.019 0.802-0.021 1.205-0.005 1.345 0.815 2.506 1.866 3.453 3.126 0.767 1.020 1.362 2.137 1.779 3.332l-0.752 0.89c-0.305-1.636-0.826-3.006-1.573-4.14zM28.338 13.798l-0.008-0.033c-0.443-1.737-1.214-3.343-2.29-4.775-0.577-0.768-1.227-1.465-1.943-2.086 2.433 0.535 4.685 1.713 6.526 3.43l-2.284 3.465z"></path>
<path d="M16 13.667c0.332 0 0.601-0.269 0.601-0.601v-4.265c0-0.332-0.269-0.601-0.601-0.601s-0.601 0.269-0.601 0.601v4.265c0 0.332 0.269 0.601 0.601 0.601z"></path>
<path d="M18.518 16.808c-1.389-1.389-3.648-1.389-5.037 0l-3.035 3.035c-0.489 0.489-0.758 1.139-0.758 1.831s0.269 1.342 0.758 1.831c0.489 0.489 1.139 0.758 1.831 0.758 0.223 0 0.442-0.028 0.653-0.083 0.847 0.583 1.951 0.915 3.058 0.915 0.007 0 0.014 0 0.022 0 1.109 0 2.213-0.332 3.060-0.915 0.211 0.055 0.43 0.083 0.653 0.083 0.692 0 1.342-0.269 1.831-0.758 1.009-1.009 1.009-2.652 0-3.661l-3.035-3.035zM16 19.229c-0.801 0-1.452-0.585-1.452-1.304 0-0.288 0.142-0.958 1.452-0.958s1.452 0.67 1.452 0.958c0 0.719-0.651 1.304-1.452 1.304zM11.297 22.654v0c-0.262-0.262-0.406-0.61-0.406-0.98s0.144-0.718 0.406-0.98l2.134-2.134c0.259 0.933 1.075 1.655 2.090 1.831l-2.264 2.264c-0.262 0.262-0.61 0.406-0.98 0.406s-0.718-0.144-0.98-0.406zM16.007 23.892c-0.006 0-0.011 0-0.017 0-0.656 0-1.304-0.145-1.862-0.407l0.672-0.672c0.388-0.088 0.789-0.134 1.195-0.134 0.002 0 0.004 0 0.007 0 0.409 0 0.81 0.045 1.199 0.134l0.672 0.672c-0.558 0.262-1.207 0.407-1.864 0.407zM20.703 22.654c-0.262 0.262-0.61 0.406-0.98 0.406s-0.718-0.144-0.98-0.406l-2.264-2.264c1.016-0.175 1.832-0.898 2.090-1.831l2.134 2.134c0.541 0.541 0.541 1.42 0 1.961z"></path>
</symbol>
<symbol id="icon-python" viewBox="0 0 32 32">
<title>python</title>
<path d="M14.442 5.501c-0.542 0-0.982 0.439-0.982 0.982s0.44 0.982 0.982 0.982c0.543 0 0.982-0.44 0.982-0.982s-0.439-0.982-0.982-0.982z"></path>
<path d="M27.518 11.423h-5.776v-7.176c-0.009-2.344-1.919-4.247-4.264-4.247h-2.854c-2.352 0-4.265 1.913-4.265 4.264v4.42c-0.804 0-5.398 0-5.928 0-2.34 0-4.243 1.904-4.243 4.243v2.897c0 2.34 1.904 4.243 4.243 4.243h5.928v7.668c0 2.352 1.913 4.264 4.264 4.264h2.854c2.352 0 4.264-1.913 4.264-4.264v-4.42h5.776c2.34 0 4.243-1.903 4.243-4.243v-3.406c0-2.34-1.904-4.243-4.243-4.243zM29.797 19.073c0 1.256-1.022 2.278-2.279 2.278-0.229 0-10.406 0-10.751 0-1.297 0-1.3 1.965 0 1.965h3.011v4.42c0 1.269-1.032 2.3-2.3 2.3h-2.854c-1.268 0-2.3-1.031-2.3-2.3 0-1.364 0-9.34 0-11.037h8.436c0.542 0 0.982-0.44 0.982-0.982v-2.329h5.776c1.257 0 2.279 1.022 2.279 2.279v3.406zM2.152 15.824v-2.897c0-1.257 1.022-2.279 2.279-2.279h10.993c1.303 0 1.295-1.965 0-1.965h-3.1v-4.42c0-1.268 1.032-2.3 2.301-2.3h2.854c1.268 0 2.3 1.031 2.3 2.3v10.47h-8.437c-0.542 0-0.982 0.439-0.982 0.982v2.386h-5.928c-1.257 0-2.279-1.022-2.279-2.278z"></path>
<path d="M17.808 26.609c0.543 0 0.982-0.44 0.982-0.982s-0.439-0.982-0.982-0.982c-0.542 0-0.982 0.44-0.982 0.982s0.44 0.982 0.982 0.982z"></path>
</symbol>
<symbol id="icon-sass" viewBox="0 0 32 32">
<title>sass</title>
<path d="M27.547 17.78c-1.119 0.006-2.088 0.275-2.9 0.675-0.3-0.594-0.6-1.113-0.65-1.5-0.056-0.45-0.125-0.725-0.056-1.263s0.381-1.3 0.381-1.363c-0.006-0.056-0.069-0.331-0.713-0.338s-1.2 0.125-1.263 0.294c-0.063 0.169-0.188 0.556-0.269 0.956-0.113 0.588-1.288 2.669-1.956 3.763-0.219-0.425-0.406-0.8-0.444-1.1-0.056-0.45-0.125-0.725-0.056-1.263s0.381-1.3 0.381-1.363c-0.006-0.056-0.069-0.331-0.713-0.338s-1.2 0.125-1.263 0.294c-0.063 0.169-0.131 0.569-0.269 0.956-0.131 0.388-1.694 3.863-2.1 4.769-0.206 0.463-0.388 0.831-0.519 1.081s-0.006 0.019-0.019 0.044c-0.113 0.213-0.175 0.331-0.175 0.331v0.006c-0.088 0.156-0.181 0.306-0.225 0.306-0.031 0-0.094-0.419 0.012-0.994 0.231-1.206 0.794-3.088 0.788-3.157 0-0.031 0.106-0.363-0.363-0.531-0.456-0.169-0.619 0.113-0.656 0.113s-0.069 0.1-0.069 0.1 0.506-2.119-0.969-2.119c-0.925 0-2.2 1.006-2.832 1.925-0.4 0.219-1.25 0.681-2.15 1.175-0.344 0.188-0.7 0.388-1.038 0.569l-0.069-0.075c-1.788-1.906-5.094-3.257-4.957-5.819 0.050-0.931 0.375-3.388 6.351-6.363 4.894-2.438 8.813-1.769 9.495-0.281 0.969 2.125-2.094 6.076-7.182 6.644-1.938 0.219-2.957-0.531-3.213-0.813-0.269-0.294-0.306-0.306-0.406-0.25-0.162 0.088-0.063 0.35 0 0.506 0.15 0.394 0.775 1.094 1.838 1.444 0.931 0.306 3.207 0.475 5.957-0.588 3.082-1.194 5.488-4.507 4.782-7.276-0.719-2.819-5.394-3.744-9.813-2.175-2.631 0.938-5.482 2.4-7.532 4.319-2.438 2.275-2.825 4.263-2.663 5.088 0.569 2.944 4.625 4.863 6.251 6.282-0.081 0.044-0.156 0.087-0.225 0.125-0.813 0.4-3.907 2.019-4.682 3.732-0.875 1.938 0.137 3.332 0.813 3.519 2.088 0.581 4.225-0.463 5.382-2.181 1.15-1.719 1.013-3.95 0.481-4.969l-0.019-0.038 0.638-0.375c0.413-0.244 0.819-0.469 1.175-0.663-0.2 0.544-0.344 1.188-0.419 2.125-0.088 1.1 0.363 2.525 0.956 3.088 0.263 0.244 0.575 0.25 0.769 0.25 0.688 0 1-0.569 1.344-1.25 0.425-0.831 0.8-1.794 0.8-1.794s-0.469 2.606 0.813 2.606c0.469 0 0.938-0.606 1.15-0.919v0.006s0.012-0.019 0.037-0.063c0.050-0.075 0.075-0.119 0.075-0.119v-0.012c0.188-0.325 0.606-1.069 1.231-2.3 0.806-1.588 1.581-3.575 1.581-3.575s0.075 0.488 0.306 1.288c0.137 0.475 0.438 0.994 0.669 1.5-0.188 0.263-0.3 0.413-0.3 0.413l0.006 0.006c-0.15 0.2-0.319 0.413-0.494 0.625-0.638 0.763-1.4 1.631-1.5 1.881-0.119 0.294-0.094 0.513 0.137 0.688 0.169 0.125 0.469 0.15 0.788 0.125 0.575-0.038 0.975-0.181 1.175-0.269 0.313-0.113 0.669-0.281 1.013-0.531 0.625-0.463 1.006-1.119 0.969-1.994-0.019-0.481-0.175-0.956-0.369-1.406 0.056-0.081 0.113-0.163 0.169-0.25 0.988-1.444 1.75-3.032 1.75-3.032s0.075 0.488 0.306 1.288c0.119 0.406 0.356 0.85 0.569 1.288-0.925 0.756-1.506 1.631-1.706 2.206-0.369 1.063-0.081 1.544 0.463 1.656 0.244 0.050 0.594-0.063 0.856-0.175 0.325-0.106 0.719-0.288 1.081-0.556 0.625-0.463 1.225-1.106 1.194-1.975-0.019-0.4-0.125-0.794-0.269-1.169 0.788-0.325 1.806-0.513 3.1-0.356 2.782 0.325 3.332 2.063 3.225 2.788s-0.688 1.125-0.881 1.25c-0.194 0.119-0.256 0.163-0.238 0.25 0.025 0.131 0.113 0.125 0.281 0.1 0.231-0.038 1.463-0.594 1.513-1.931 0.075-1.719-1.556-3.594-4.45-3.575zM6.095 25.012c-0.919 1.006-2.213 1.388-2.763 1.063-0.594-0.344-0.363-1.825 0.769-2.894 0.688-0.65 1.581-1.25 2.169-1.619 0.131-0.081 0.331-0.2 0.569-0.344 0.037-0.025 0.063-0.038 0.063-0.038 0.044-0.025 0.094-0.056 0.144-0.087 0.419 1.525 0.019 2.863-0.95 3.919zM12.815 20.443c-0.319 0.781-0.994 2.788-1.4 2.675-0.35-0.094-0.563-1.613-0.069-3.113 0.25-0.756 0.781-1.656 1.094-2.006 0.506-0.563 1.056-0.75 1.194-0.519 0.162 0.3-0.619 2.475-0.819 2.963zM18.359 23.093c-0.137 0.069-0.263 0.119-0.319 0.081-0.044-0.025 0.056-0.119 0.056-0.119s0.694-0.744 0.969-1.088c0.156-0.2 0.344-0.431 0.544-0.694v0.075c0 0.9-0.863 1.5-1.25 1.744zM22.634 22.118c-0.1-0.075-0.087-0.306 0.25-1.031 0.131-0.288 0.431-0.769 0.95-1.225 0.063 0.188 0.1 0.369 0.094 0.538-0.006 1.125-0.806 1.544-1.294 1.719z"></path>
</symbol>
<symbol id="icon-socketio" viewBox="0 0 32 32">
<title>socketio</title>
<path d="M31.994 15.647c-0.087-5.356-3.070-10.559-7.685-13.302-3.636-2.264-8.229-2.874-12.366-1.829-6.226 1.567-11.19 7.206-11.822 13.629-0.784 6.074 2.286 12.388 7.533 15.501 5.138 3.222 12.126 3.091 17.156-0.305 4.528-2.939 7.337-8.295 7.184-13.694zM16.885 29.624c-7.271 0.718-14.304-5.443-14.499-12.736-0.544-5.922 3.353-11.778 8.926-13.738 7.816-3.135 17.417 2.656 18.222 11.038 1.263 7.533-5.007 15.196-12.649 15.436z"></path>
<path d="M12.095 15.19c3.505-2.874 6.945-5.835 10.515-8.6-1.872 2.896-3.81 5.726-5.682 8.621-1.611 0-3.222 0-4.833-0.022z"></path>
<path d="M15.056 16.78c1.611 0 3.222 0 4.833 0.022-3.505 2.852-6.923 5.835-10.515 8.621 1.872-2.896 3.81-5.748 5.682-8.643z"></path>
</symbol>
<symbol id="icon-twitter" viewBox="0 0 32 32">
<title>twitter</title>
<path d="M32 6.079c-1.178 0.522-2.442 0.876-3.769 1.034 1.356-0.812 2.394-2.1 2.885-3.629-1.272 0.752-2.675 1.298-4.171 1.594-1.198-1.278-2.901-2.074-4.791-2.074-3.625 0-6.565 2.939-6.565 6.563 0 0.514 0.058 1.016 0.17 1.496-5.455-0.274-10.292-2.887-13.529-6.859-0.566 0.968-0.888 2.096-0.888 3.299 0 2.278 1.16 4.287 2.919 5.463-1.076-0.036-2.088-0.332-2.973-0.824v0.082c0 3.179 2.264 5.833 5.265 6.437-0.55 0.148-1.13 0.23-1.73 0.23-0.424 0-0.834-0.042-1.236-0.122 0.836 2.61 3.259 4.507 6.131 4.559-2.246 1.76-5.077 2.805-8.152 2.805-0.53 0-1.052-0.032-1.566-0.090 2.905 1.866 6.355 2.953 10.062 2.953 12.076 0 18.677-10.002 18.677-18.677l-0.022-0.85c1.29-0.92 2.405-2.076 3.283-3.391z"></path>
</symbol>
<symbol id="icon-webpack" viewBox="0 0 32 32">
<title>webpack</title>
<path d="M29.539 24.663l-12.969 7.337v-5.713l8.081-4.446zM30.427 23.86v-15.341l-4.744 2.742v9.862zM2.461 24.663l12.969 7.337v-5.713l-8.085-4.446zM1.573 23.86v-15.341l4.744 2.742v9.862zM2.13 7.524l13.301-7.524v5.522l-8.591 4.727zM29.87 7.524l-13.301-7.524v5.522l8.591 4.723z"></path>
<path d="M15.43 25.237l-7.974-4.387v-8.684l7.974 4.604zM16.57 25.237l7.974-4.383v-8.689l-7.974 4.604zM7.996 11.163l8.004-4.4 8.004 4.4-8.004 4.621z"></path>
</symbol>
<symbol id="icon-location" viewBox="0 0 16 28">
<title>location</title>
<path d="M12 10c0-2.203-1.797-4-4-4s-4 1.797-4 4 1.797 4 4 4 4-1.797 4-4zM16 10c0 0.953-0.109 1.937-0.516 2.797l-5.688 12.094c-0.328 0.688-1.047 1.109-1.797 1.109s-1.469-0.422-1.781-1.109l-5.703-12.094c-0.406-0.859-0.516-1.844-0.516-2.797 0-4.422 3.578-8 8-8s8 3.578 8 8z"></path>
</symbol>
<symbol id="icon-mail" viewBox="0 0 20 20">
<title>mail</title>
<path d="M14.608 12.172c0 0.84 0.239 1.175 0.864 1.175 1.393 0 2.28-1.775 2.28-4.727 0-4.512-3.288-6.672-7.393-6.672-4.223 0-8.064 2.832-8.064 8.184 0 5.112 3.36 7.896 8.52 7.896 1.752 0 2.928-0.192 4.727-0.792l0.386 1.607c-1.776 0.577-3.674 0.744-5.137 0.744-6.768 0-10.393-3.72-10.393-9.456 0-5.784 4.201-9.72 9.985-9.72 6.024 0 9.215 3.6 9.215 8.016 0 3.744-1.175 6.6-4.871 6.6-1.681 0-2.784-0.672-2.928-2.161-0.432 1.656-1.584 2.161-3.145 2.161-2.088 0-3.84-1.609-3.84-4.848 0-3.264 1.537-5.28 4.297-5.28 1.464 0 2.376 0.576 2.782 1.488l0.697-1.272h2.016v7.057h0.002zM11.657 9.004c0-1.319-0.985-1.872-1.801-1.872-0.888 0-1.871 0.719-1.871 2.832 0 1.68 0.744 2.616 1.871 2.616 0.792 0 1.801-0.504 1.801-1.896v-1.68z"></path>
</symbol>
<symbol id="icon-down" viewBox="0 0 20 20">
<title>down</title>
<path d="M4.516 7.548c0.436-0.446 1.043-0.481 1.576 0l3.908 3.747 3.908-3.747c0.533-0.481 1.141-0.446 1.574 0 0.436 0.445 0.408 1.197 0 1.615-0.406 0.418-4.695 4.502-4.695 4.502-0.217 0.223-0.502 0.335-0.787 0.335s-0.57-0.112-0.789-0.335c0 0-4.287-4.084-4.695-4.502s-0.436-1.17 0-1.615z"></path>
</symbol>
<symbol id="icon-up" viewBox="0 0 20 20">
<title>up</title>
<path d="M15.484 12.452c-0.436 0.446-1.043 0.481-1.576 0l-3.908-3.747-3.908 3.747c-0.533 0.481-1.141 0.446-1.574 0-0.436-0.445-0.408-1.197 0-1.615 0.406-0.418 4.695-4.502 4.695-4.502 0.217-0.223 0.502-0.335 0.787-0.335s0.57 0.112 0.789 0.335c0 0 4.287 4.084 4.695 4.502s0.436 1.17 0 1.615z"></path>
</symbol>
</defs>
</svg>
