<svg aria-hidden="true" style="position: absolute; width: 0; height: 0; overflow: hidden;" version="1.1" xmlns="http://www.w3.org/2000/svg" xmlns:xlink="http://www.w3.org/1999/xlink">
<defs>
<symbol id="icon-codepen" viewBox="0 0 32 32">
<title>codepen</title>
<path d="M17.057 0.419c-0.863-0.571-1.989-0.558-2.839 0.034l-12.717 8.858c-0.678 0.473-1.082 1.246-1.082 2.074v9.544c0 0.849 0.425 1.64 1.134 2.108l12.925 8.544c0.845 0.559 1.942 0.559 2.787 0l13.182-8.709c0.707-0.468 1.134-1.259 1.134-2.108v-9.377c0-0.848-0.425-1.639-1.133-2.107l-13.391-8.861zM26.903 10.758l-4.872 3.271-4.569-3.323-0.029-6.535 9.47 6.587zM14.127 4.177v6.396l-4.682 3.274-4.67-3.132 9.352-6.538zM3.495 13.867l3.023 2.025-3.023 2.115v-4.14zM14.207 27.503l-9.43-6.324 4.71-3.292 4.719 3.166v6.451zM12.416 15.84l3.053-2.135 3.556 2.337-3.152 2.117-3.457-2.319zM17.538 27.503v-6.453l4.51-3.023 4.856 3.192-9.366 6.283zM28.25 18.117l-3.202-2.104 3.202-2.147v4.251z"></path>
</symbol>
<symbol id="icon-css" viewBox="0 0 32 32">
<title>css</title>
<path d="M30.495 0.22c-0.127-0.14-0.307-0.22-0.495-0.22h-28c-0.189 0-0.368 0.080-0.495 0.22-0.127 0.139-0.188 0.325-0.169 0.513l2.667 26.667c0.025 0.26 0.203 0.483 0.452 0.565l12 4c0.068 0.024 0.14 0.035 0.211 0.035 0.080 0 0.159-0.015 0.236-0.043l10.667-4c0.237-0.088 0.404-0.305 0.429-0.557l2.667-26.667c0.019-0.187-0.043-0.375-0.169-0.513zM26.709 26.855l-10.057 3.772-11.367-3.789-2.551-25.504h26.527l-2.552 25.521z"></path>
<path d="M25.176 6.905c-0.127-0.151-0.315-0.237-0.511-0.237h-16c-0.368 0-0.667 0.299-0.667 0.667s0.299 0.667 0.667 0.667h15.207l-0.927 5.332h-13.613c-0.368 0-0.667 0.299-0.667 0.667s0.299 0.667 0.667 0.667h13.381l-1.307 7.511-4.755 1.783-5.409-1.804-0.591-2.953c-0.071-0.36-0.419-0.596-0.784-0.523-0.36 0.072-0.595 0.423-0.523 0.784l0.667 3.333c0.047 0.235 0.216 0.425 0.443 0.501l6 2c0.068 0.024 0.14 0.035 0.211 0.035 0.080 0 0.159-0.015 0.235-0.041l5.333-2c0.221-0.084 0.383-0.277 0.423-0.511l2.667-15.333c0.033-0.193-0.020-0.392-0.147-0.543z"></path>
</symbol>
<symbol id="icon-facebook" viewBox="0 0 32 32">
<title>facebook</title>
<path d="M11.761 6.197c0 0.806 0 4.406 0 4.406h-3.228v5.387h3.228v16.009h6.631v-16.009h4.449c0 0 0.417-2.583 0.619-5.408-0.579 0-5.043 0-5.043 0s0-3.134 0-3.684c0-0.551 0.723-1.291 1.437-1.291 0.713 0 2.218 0 3.613 0 0-0.734 0-3.268 0-5.609-1.861 0-3.979 0-4.912 0-6.958-0-6.794 5.392-6.794 6.197z"></path>
</symbol>
<symbol id="icon-github" viewBox="0 0 32 32">
<title>github</title>
<path d="M0 16.393c0 1.45 0.136 2.762 0.407 3.935s0.647 2.193 1.127 3.059 1.090 1.627 1.831 2.285c0.741 0.657 1.544 1.195 2.41 1.612s1.854 0.756 2.965 1.017c1.111 0.261 2.245 0.443 3.403 0.548s2.431 0.156 3.818 0.156c1.398 0 2.676-0.052 3.834-0.156s2.295-0.287 3.411-0.548c1.116-0.261 2.11-0.6 2.981-1.017s1.68-0.954 2.426-1.612c0.746-0.657 1.361-1.419 1.846-2.285s0.863-1.886 1.134-3.059c0.271-1.174 0.407-2.486 0.407-3.935 0-2.587-0.866-4.825-2.597-6.713 0.094-0.25 0.18-0.535 0.258-0.853s0.151-0.772 0.219-1.361c0.068-0.59 0.042-1.27-0.078-2.042s-0.342-1.56-0.665-2.363l-0.235-0.047c-0.167-0.031-0.441-0.023-0.822 0.023s-0.824 0.141-1.33 0.282c-0.506 0.141-1.158 0.412-1.956 0.814s-1.64 0.905-2.527 1.51c-1.523-0.417-3.615-0.626-6.275-0.626-2.65 0-4.736 0.209-6.259 0.626-0.887-0.605-1.734-1.108-2.543-1.51s-1.453-0.673-1.932-0.814c-0.48-0.141-0.928-0.232-1.346-0.274s-0.681-0.055-0.79-0.039-0.196 0.034-0.258 0.055c-0.323 0.803-0.545 1.591-0.665 2.363s-0.146 1.453-0.078 2.042c0.068 0.589 0.141 1.043 0.219 1.361s0.164 0.603 0.258 0.853c-1.732 1.888-2.598 4.126-2.598 6.713zM3.928 20.32c0-1.502 0.683-2.879 2.050-4.131 0.407-0.376 0.881-0.66 1.424-0.853s1.155-0.303 1.839-0.329c0.683-0.026 1.338-0.021 1.964 0.016s1.398 0.086 2.316 0.149c0.918 0.063 1.711 0.094 2.379 0.094s1.46-0.031 2.378-0.094c0.918-0.063 1.69-0.112 2.316-0.149s1.28-0.042 1.964-0.016c0.683 0.026 1.296 0.136 1.839 0.329s1.017 0.477 1.424 0.853c1.367 1.231 2.050 2.608 2.050 4.131 0 0.897-0.112 1.693-0.337 2.386s-0.511 1.275-0.861 1.745c-0.349 0.469-0.834 0.869-1.455 1.197s-1.226 0.582-1.815 0.759c-0.59 0.177-1.346 0.316-2.269 0.415s-1.747 0.159-2.472 0.18c-0.725 0.021-1.646 0.031-2.762 0.031s-2.037-0.010-2.762-0.031c-0.725-0.021-1.549-0.081-2.472-0.18s-1.68-0.237-2.269-0.415c-0.589-0.178-1.194-0.431-1.815-0.759s-1.106-0.728-1.455-1.197c-0.349-0.469-0.636-1.051-0.861-1.745s-0.337-1.489-0.337-2.386zM20 20.005c0 1.657 0.895 3 2 3s2-1.343 2-3-0.895-3-2-3-2 1.343-2 3zM8 20.005c0 1.657 0.895 3 2 3s2-1.343 2-3-0.895-3-2-3-2 1.343-2 3z"></path>
</symbol>
<symbol id="icon-html5" viewBox="0 0 32 32">
<title>html5</title>
<path d="M1.688 0l2.767 28.844 11.572 3.156 11.573-3.156 2.767-28.844zM25.842 27.364l-9.816 2.677-9.815-2.677-2.444-25.474h24.518z"></path>
<path d="M7.915 17.246h11.141l-0.184 2.871-2.773 0.905-2.921-0.902v-1.565h-5.364v5.389l8.283 2.576 7.718-2.245 1.005-12.182-12.122-0.139-0.14-1.253 12.304 0v-5.171h-18.256zM22.973 7.419v1.391l-12.527-0.001 0.561 5.015 11.764 0.135-0.731 8.864-5.923 1.723-6.411-1.994v-2.107h1.583v1.069l4.827 1.491 4.561-1.489 0.395-6.16h-11.466l-0.886-7.937z"></path>
</symbol>
<symbol id="icon-java" viewBox="0 0 32 32">
<title>java</title>
<path d="M15.842 5.929c-1.479 1.040-3.154 2.219-4.052 4.169-1.56 3.402 3.191 7.113 3.394 7.27 0.047 0.036 0.104 0.054 0.16 0.054 0.060 0 0.12-0.020 0.168-0.061 0.094-0.079 0.121-0.213 0.064-0.322-0.017-0.033-1.723-3.346-1.659-5.722 0.022-0.828 1.181-1.767 2.407-2.761 1.123-0.91 2.396-1.942 3.141-3.15 1.635-2.657-0.182-5.27-0.201-5.296-0.072-0.101-0.205-0.138-0.319-0.088s-0.177 0.173-0.151 0.295c0.004 0.017 0.357 1.745-0.626 3.525-0.405 0.736-1.296 1.362-2.326 2.087z"></path>
<path d="M22.071 7.101c0.104-0.079 0.135-0.222 0.072-0.336s-0.201-0.165-0.323-0.118c-0.251 0.095-6.151 2.37-6.151 5.117 0 1.894 0.809 2.895 1.4 3.626 0.232 0.287 0.432 0.534 0.498 0.745 0.186 0.609-0.254 1.71-0.439 2.082-0.053 0.107-0.027 0.237 0.063 0.315 0.049 0.042 0.11 0.064 0.171 0.064 0.052 0 0.105-0.016 0.15-0.047 0.101-0.071 2.479-1.752 2.053-3.777-0.159-0.77-0.537-1.332-0.871-1.829-0.517-0.769-0.891-1.324-0.324-2.35 0.664-1.196 3.671-3.469 3.701-3.491z"></path>
<path d="M6.714 18.64c-0.101 0.303-0.053 0.603 0.138 0.869 0.64 0.888 2.905 1.377 6.379 1.377 0 0 0 0 0 0 0.471 0 0.968-0.009 1.477-0.027 5.555-0.199 7.615-1.929 7.7-2.003 0.093-0.080 0.117-0.214 0.060-0.322s-0.182-0.162-0.3-0.13c-1.956 0.534-5.609 0.724-8.143 0.724-2.835 0-4.279-0.204-4.633-0.355 0.181-0.249 1.3-0.694 2.686-0.966 0.133-0.026 0.224-0.148 0.21-0.283s-0.126-0.237-0.261-0.237c-0.813 0-4.888 0.065-5.314 1.353z"></path>
<path d="M25.301 16.857c-1.146 0-2.232 0.574-2.278 0.599-0.106 0.057-0.16 0.178-0.131 0.295s0.134 0.198 0.254 0.199c0.024 0 2.444 0.020 2.663 1.402 0.194 1.193-2.289 3.125-3.263 3.769-0.105 0.070-0.146 0.204-0.097 0.32 0.041 0.099 0.138 0.161 0.242 0.161 0.018 0 0.037-0.002 0.055-0.006 0.231-0.049 5.65-1.244 5.077-4.399-0.35-1.934-1.565-2.34-2.523-2.34z"></path>
<path d="M21.584 22.735c0.019-0.101-0.023-0.204-0.107-0.263l-1.299-0.91c-0.063-0.044-0.143-0.058-0.218-0.039-0.014 0.004-1.372 0.361-3.345 0.58-0.783 0.088-1.66 0.134-2.536 0.134-1.972 0-3.262-0.232-3.45-0.402-0.025-0.048-0.017-0.069-0.013-0.082 0.034-0.095 0.217-0.208 0.335-0.252 0.13-0.048 0.2-0.19 0.16-0.322s-0.177-0.211-0.312-0.179c-1.303 0.315-1.941 0.754-1.895 1.307 0.082 0.98 2.353 1.483 4.273 1.617 0.276 0.019 0.575 0.029 0.887 0.029 0 0 0 0 0.001 0 3.192 0 7.284-1.002 7.325-1.012 0.1-0.025 0.176-0.105 0.195-0.206z"></path>
<path d="M11.788 24.839c0.098-0.064 0.142-0.186 0.107-0.298s-0.14-0.186-0.257-0.184c-0.175 0.005-1.709 0.074-1.817 1.051-0.033 0.292 0.051 0.559 0.249 0.793 0.551 0.653 2.038 1.041 4.546 1.187 0.297 0.018 0.598 0.027 0.896 0.027 3.188 0 5.336-0.998 5.426-1.041 0.087-0.041 0.145-0.127 0.15-0.223s-0.043-0.188-0.125-0.238l-1.642-1.003c-0.057-0.035-0.125-0.046-0.19-0.033-0.010 0.002-1.053 0.218-2.627 0.432-0.298 0.040-0.671 0.061-1.108 0.061-1.572 0-3.32-0.257-3.656-0.425-0.005-0.032 0.001-0.071 0.048-0.106z"></path>
<path d="M14.025 30.428c7.303-0.006 11.223-1.305 11.978-2.122 0.267-0.289 0.296-0.563 0.273-0.742-0.056-0.44-0.457-0.709-0.502-0.739-0.11-0.070-0.257-0.052-0.342 0.047s-0.087 0.243-0.002 0.341c0.046 0.059 0.073 0.158-0.062 0.293-0.302 0.282-3.347 1.138-8.416 1.395-0.694 0.036-1.423 0.054-2.165 0.055-4.539 0-7.861-0.622-8.297-0.984 0.168-0.241 1.343-0.627 2.593-0.845 0.141-0.025 0.236-0.157 0.214-0.299s-0.152-0.238-0.294-0.22c-0.035 0.005-0.155 0.012-0.293 0.020-2.062 0.126-4.444 0.407-4.569 1.469-0.038 0.324 0.058 0.618 0.286 0.873 0.557 0.626 2.157 1.457 9.597 1.457 0 0 0 0 0 0z"></path>
<path d="M27.438 28.536c-0.103-0.048-0.225-0.024-0.302 0.059-0.011 0.012-1.109 1.16-4.41 1.834-1.264 0.253-3.636 0.382-7.052 0.382-3.422 0-6.677-0.135-6.71-0.136-0.136-0.007-0.252 0.092-0.271 0.226s0.068 0.26 0.199 0.291c0.034 0.008 3.446 0.807 8.111 0.807 2.238 0 4.415-0.182 6.472-0.54 3.835-0.672 4.104-2.574 4.113-2.655 0.013-0.113-0.047-0.221-0.15-0.269z"></path>
</symbol>
<symbol id="icon-javascript" viewBox="0 0 32 32">
<title>javascript</title>
<path d="M30.495 0.22c-0.127-0.14-0.307-0.22-0.495-0.22h-28c-0.189 0-0.368 0.080-0.495 0.22-0.127 0.139-0.188 0.325-0.169 0.513l2.667 26.667c0.025 0.26 0.203 0.483 0.452 0.565l12 4c0.068 0.024 0.14 0.035 0.211 0.035 0.080 0 0.159-0.015 0.236-0.043l10.667-4c0.237-0.088 0.404-0.305 0.429-0.557l2.667-26.667c0.019-0.187-0.043-0.375-0.169-0.513zM26.709 26.855l-10.057 3.772-11.367-3.789-2.551-25.504h26.527l-2.552 25.521z"></path>
<path d="M25.191 6.923c-0.127-0.161-0.32-0.256-0.525-0.256h-6.667c-0.368 0-0.667 0.299-0.667 0.667v8c0 0.368 0.299 0.667 0.667 0.667h4.535l-1.12 6.159-3.625 1.209c-0.349 0.116-0.537 0.493-0.421 0.843 0.093 0.28 0.353 0.456 0.632 0.456 0.069 0 0.14-0.011 0.212-0.033l4-1.333c0.231-0.077 0.401-0.273 0.444-0.513l1.333-7.333c0.036-0.195-0.017-0.395-0.144-0.547s-0.315-0.24-0.512-0.24h-4.667v-6.667h5.145l-0.459 1.839c-0.089 0.357 0.128 0.719 0.485 0.808 0.353 0.088 0.719-0.128 0.808-0.485l0.667-2.667c0.049-0.2 0.005-0.411-0.121-0.572z"></path>
<path d="M15.331 6.667h-8c-0.368 0-0.667 0.299-0.667 0.667s0.299 0.667 0.667 0.667h7.333v15.116l-3.425-0.979-0.587-2.935c-0.072-0.36-0.417-0.596-0.784-0.523-0.36 0.072-0.595 0.423-0.523 0.784l0.667 3.333c0.049 0.245 0.231 0.441 0.471 0.511l4.667 1.333c0.060 0.017 0.121 0.025 0.183 0.025 0.143 0 0.284-0.047 0.4-0.135 0.167-0.125 0.265-0.323 0.265-0.532v-16.667c-0-0.368-0.299-0.667-0.667-0.667z"></path>
</symbol>
<symbol id="icon-linkedin" viewBox="0 0 32 32">
<title>linkedin</title>
<path d="M32 19.458v11.831h-6.859v-11.038c0-2.773-0.992-4.665-3.475-4.665-1.895 0-3.023 1.275-3.519 2.509-0.181 0.441-0.227 1.055-0.227 1.672v11.522h-6.861c0 0 0.092-18.695 0-20.632h6.86v2.925c-0.014 0.022-0.032 0.045-0.045 0.067h0.045v-0.067c0.911-1.404 2.539-3.409 6.183-3.409 4.514-0 7.898 2.949 7.898 9.286zM3.882 0.711c-2.347 0-3.882 1.54-3.882 3.564 0 1.98 1.491 3.567 3.791 3.567h0.046c2.393 0 3.881-1.586 3.881-3.567-0.045-2.025-1.488-3.564-3.835-3.564zM0.407 31.289h6.858v-20.632h-6.858v20.632z"></path>
</symbol>
<symbol id="icon-love" viewBox="0 0 32 32">
<title>love</title>
<path fill="#d75a4a" style="fill: var(--color1, #d75a4a)" d="M15.904 6.481c1.292-3.061 4.242-5.2 7.674-5.2 4.623 0 7.952 3.955 8.371 8.668 0 0 0.226 1.17-0.271 3.276-0.677 2.868-2.269 5.417-4.415 7.362l-11.358 10.134-11.167-10.134c-2.146-1.944-3.738-4.493-4.415-7.362-0.497-2.106-0.271-3.276-0.271-3.276 0.419-4.713 3.748-8.668 8.371-8.668 3.432 0 6.191 2.14 7.482 5.201z"></path>
</symbol>
<symbol id="icon-mail" viewBox="0 0 32 32">
<title>mail</title>
<path d="M28.094 3.824h-24.18c-2.159 0-3.913 1.755-3.913 3.913v16.526c0 2.159 1.755 3.913 3.913 3.913h24.174c2.159 0 3.913-1.755 3.913-3.913v-16.52c0.007-2.159-1.748-3.92-3.906-3.92zM30.219 24.263c0 1.172-0.953 2.125-2.125 2.125h-24.18c-1.172 0-2.125-0.953-2.125-2.125v-16.52c0-1.172 0.953-2.125 2.125-2.125h24.174c1.172 0 2.125 0.953 2.125 2.125v16.52h0.007z"></path>
<path d="M20.181 15.795l7.826-7.018c0.364-0.331 0.397-0.894 0.066-1.265-0.331-0.364-0.894-0.397-1.265-0.066l-10.792 9.687-2.106-1.88c-0.007-0.007-0.013-0.013-0.013-0.020-0.046-0.046-0.093-0.086-0.146-0.126l-8.568-7.667c-0.371-0.331-0.934-0.298-1.265 0.073s-0.298 0.934 0.073 1.265l7.919 7.078-7.886 7.383c-0.358 0.338-0.377 0.9-0.040 1.265 0.179 0.185 0.417 0.285 0.656 0.285 0.218 0 0.437-0.079 0.609-0.238l8.005-7.489 2.172 1.94c0.172 0.152 0.384 0.225 0.596 0.225s0.43-0.079 0.596-0.232l2.231-2 7.959 7.561c0.172 0.166 0.397 0.245 0.616 0.245 0.238 0 0.47-0.093 0.649-0.278 0.338-0.358 0.324-0.927-0.033-1.265l-7.859-7.462z"></path>
</symbol>
<symbol id="icon-pug" viewBox="0 0 32 32">
<title>pug</title>
<path d="M11.139 17.746c0.957-0.597 1.25-1.862 0.653-2.82-0.106-0.169-0.23-0.31-0.368-0.42 0.179-0.282 0.294-0.603 0.333-0.946 0.078-0.682-0.156-1.351-0.641-1.836-0.235-0.235-0.616-0.235-0.851 0s-0.235 0.616 0 0.85c0.224 0.224 0.332 0.534 0.296 0.849s-0.211 0.592-0.48 0.76c0 0-1.581 1.018-1.815 1.407-0.28 0.466-0.261 1 0.052 1.502 0.388 0.621 1.056 0.963 1.74 0.963 0.37 0 0.744-0.1 1.080-0.31zM9.339 16.456c-0.096-0.154-0.069-0.199-0.041-0.246 0.076-0.127 0.272-0.289 0.581-0.482s0.541-0.297 0.689-0.31c0.009-0.001 0.019-0.002 0.028-0.002 0.046 0 0.095 0.019 0.175 0.147 0.246 0.395 0.126 0.916-0.269 1.163s-0.916 0.126-1.163-0.269z"></path>
<path d="M21.517 14.183c-0.269-0.168-0.444-0.445-0.48-0.76s0.072-0.625 0.296-0.849c0.235-0.235 0.235-0.616 0-0.85s-0.616-0.235-0.851 0c-0.485 0.485-0.719 1.154-0.641 1.836 0.039 0.343 0.154 0.664 0.333 0.946-0.138 0.111-0.262 0.251-0.368 0.42-0.597 0.957-0.305 2.222 0.653 2.82 0.336 0.21 0.71 0.31 1.080 0.31 0.683 0 1.352-0.341 1.74-0.963 0.313-0.502 0.332-1.036 0.052-1.502-0.234-0.39-1.815-1.407-1.815-1.407zM22.26 16.456c-0.246 0.395-0.768 0.516-1.163 0.269s-0.516-0.768-0.269-1.163c0.080-0.128 0.129-0.147 0.175-0.147 0.009 0 0.019 0.001 0.028 0.002 0.148 0.013 0.379 0.117 0.689 0.31s0.505 0.355 0.581 0.482c0.028 0.047 0.055 0.092-0.041 0.246z"></path>
<path d="M12.581 11.671c0.268 0.268 0.416 0.625 0.416 1.005s-0.148 0.736-0.416 1.005c-0.235 0.235-0.235 0.616 0 0.85 0.117 0.117 0.271 0.176 0.425 0.176s0.308-0.059 0.425-0.176c0.495-0.495 0.768-1.154 0.768-1.855s-0.273-1.36-0.768-1.855l-1.153-1.153c-0.235-0.235-0.616-0.235-0.851 0s-0.235 0.616 0 0.85l1.153 1.153z"></path>
<path d="M18.993 14.707c0.154 0 0.308-0.059 0.425-0.176 0.235-0.235 0.235-0.616 0-0.85-0.268-0.268-0.416-0.625-0.416-1.005s0.148-0.736 0.416-1.005l1.153-1.153c0.235-0.235 0.235-0.616 0-0.85s-0.616-0.235-0.851 0l-1.153 1.153c-0.495 0.495-0.768 1.154-0.768 1.855s0.273 1.36 0.768 1.855c0.117 0.117 0.271 0.176 0.425 0.176z"></path>
<path d="M31.824 9.822c-2.671-2.671-6.219-4.244-9.991-4.43-1.625-0.079-3.238 0.101-4.798 0.534-0.336-0.021-0.681-0.032-1.034-0.032s-0.699 0.011-1.036 0.031c-1.56-0.433-3.173-0.613-4.797-0.534-3.772 0.186-7.32 1.76-9.991 4.43-0.202 0.202-0.234 0.518-0.077 0.756l3.307 5.018c0.112 0.171 0.302 0.27 0.502 0.27 0.033 0 0.066-0.003 0.1-0.008 0.235-0.040 0.424-0.214 0.483-0.445l0.25-0.981 0.93 1.101c-0.066 0.719-0.099 1.482-0.099 2.292 0 3.206 1.482 4.661 3.575 6.366 0.206 0.168 0.424 0.332 0.648 0.488 0 0 0 0 0 0 1.83 1.274 3.976 1.947 6.205 1.947s4.375-0.673 6.205-1.947l0.309-0.215c0.012-0.008 0.023-0.017 0.034-0.026 2.082-1.681 3.88-3.134 3.88-6.614 0-0.808-0.034-1.57-0.102-2.288l0.933-1.104 0.25 0.981c0.059 0.231 0.248 0.405 0.483 0.445 0.033 0.006 0.067 0.008 0.1 0.008 0.2 0 0.39-0.1 0.502-0.27l3.307-5.018c0.157-0.238 0.125-0.554-0.077-0.756zM3.67 13.766l-0.008 0.033-2.284-3.465c1.841-1.717 4.093-2.895 6.526-3.43-0.716 0.621-1.366 1.319-1.943 2.086-1.076 1.432-1.847 3.039-2.291 4.776zM5.143 13.045c0.417-1.195 1.012-2.312 1.779-3.332 0.947-1.26 2.108-2.311 3.453-3.126 0.392-0.015 0.784-0.013 1.174 0.004-1.763 0.636-3.142 1.707-4.12 3.205-0.732 1.122-1.243 2.488-1.541 4.129l-0.744-0.881zM21.809 23.489l-0.291 0.203c-1.627 1.133-3.535 1.732-5.518 1.732s-3.891-0.599-5.518-1.732h0c-0.199-0.139-0.393-0.285-0.575-0.433-2.129-1.735-3.132-2.836-3.132-5.434 0-3.247 0.543-5.658 1.661-7.371 1.473-2.259 3.948-3.357 7.564-3.357 6.294 0 9.225 3.409 9.225 10.728 0 2.77-1.171 3.851-3.416 5.665zM24.532 9.794c-0.985-1.497-2.362-2.566-4.112-3.202 0.4-0.019 0.802-0.021 1.205-0.005 1.345 0.815 2.506 1.866 3.453 3.126 0.767 1.020 1.362 2.137 1.779 3.332l-0.752 0.89c-0.305-1.636-0.826-3.006-1.573-4.14zM28.338 13.798l-0.008-0.033c-0.443-1.737-1.214-3.343-2.29-4.775-0.577-0.768-1.227-1.465-1.943-2.086 2.433 0.535 4.685 1.713 6.526 3.43l-2.284 3.465z"></path>
<path d="M16 13.667c0.332 0 0.601-0.269 0.601-0.601v-4.265c0-0.332-0.269-0.601-0.601-0.601s-0.601 0.269-0.601 0.601v4.265c0 0.332 0.269 0.601 0.601 0.601z"></path>
<path d="M18.518 16.808c-1.389-1.389-3.648-1.389-5.037 0l-3.035 3.035c-0.489 0.489-0.758 1.139-0.758 1.831s0.269 1.342 0.758 1.831c0.489 0.489 1.139 0.758 1.831 0.758 0.223 0 0.442-0.028 0.653-0.083 0.847 0.583 1.951 0.915 3.058 0.915 0.007 0 0.014 0 0.022 0 1.109 0 2.213-0.332 3.060-0.915 0.211 0.055 0.43 0.083 0.653 0.083 0.692 0 1.342-0.269 1.831-0.758 1.009-1.009 1.009-2.652 0-3.661l-3.035-3.035zM16 19.229c-0.801 0-1.452-0.585-1.452-1.304 0-0.288 0.142-0.958 1.452-0.958s1.452 0.67 1.452 0.958c0 0.719-0.651 1.304-1.452 1.304zM11.297 22.654v0c-0.262-0.262-0.406-0.61-0.406-0.98s0.144-0.718 0.406-0.98l2.134-2.134c0.259 0.933 1.075 1.655 2.090 1.831l-2.264 2.264c-0.262 0.262-0.61 0.406-0.98 0.406s-0.718-0.144-0.98-0.406zM16.007 23.892c-0.006 0-0.011 0-0.017 0-0.656 0-1.304-0.145-1.862-0.407l0.672-0.672c0.388-0.088 0.789-0.134 1.195-0.134 0.002 0 0.004 0 0.007 0 0.409 0 0.81 0.045 1.199 0.134l0.672 0.672c-0.558 0.262-1.207 0.407-1.864 0.407zM20.703 22.654c-0.262 0.262-0.61 0.406-0.98 0.406s-0.718-0.144-0.98-0.406l-2.264-2.264c1.016-0.175 1.832-0.898 2.090-1.831l2.134 2.134c0.541 0.541 0.541 1.42 0 1.961z"></path>
</symbol>
<symbol id="icon-python" viewBox="0 0 32 32">
<title>python</title>
<path d="M14.442 5.501c-0.542 0-0.982 0.439-0.982 0.982s0.44 0.982 0.982 0.982c0.543 0 0.982-0.44 0.982-0.982s-0.439-0.982-0.982-0.982z"></path>
<path d="M27.518 11.423h-5.776v-7.176c-0.009-2.344-1.919-4.247-4.264-4.247h-2.854c-2.352 0-4.265 1.913-4.265 4.264v4.42c-0.804 0-5.398 0-5.928 0-2.34 0-4.243 1.904-4.243 4.243v2.897c0 2.34 1.904 4.243 4.243 4.243h5.928v7.668c0 2.352 1.913 4.264 4.264 4.264h2.854c2.352 0 4.264-1.913 4.264-4.264v-4.42h5.776c2.34 0 4.243-1.903 4.243-4.243v-3.406c0-2.34-1.904-4.243-4.243-4.243zM29.797 19.073c0 1.256-1.022 2.278-2.279 2.278-0.229 0-10.406 0-10.751 0-1.297 0-1.3 1.965 0 1.965h3.011v4.42c0 1.269-1.032 2.3-2.3 2.3h-2.854c-1.268 0-2.3-1.031-2.3-2.3 0-1.364 0-9.34 0-11.037h8.436c0.542 0 0.982-0.44 0.982-0.982v-2.329h5.776c1.257 0 2.279 1.022 2.279 2.279v3.406zM2.152 15.824v-2.897c0-1.257 1.022-2.279 2.279-2.279h10.993c1.303 0 1.295-1.965 0-1.965h-3.1v-4.42c0-1.268 1.032-2.3 2.301-2.3h2.854c1.268 0 2.3 1.031 2.3 2.3v10.47h-8.437c-0.542 0-0.982 0.439-0.982 0.982v2.386h-5.928c-1.257 0-2.279-1.022-2.279-2.278z"></path>
<path d="M17.808 26.609c0.543 0 0.982-0.44 0.982-0.982s-0.439-0.982-0.982-0.982c-0.542 0-0.982 0.44-0.982 0.982s0.44 0.982 0.982 0.982z"></path>
</symbol>
<symbol id="icon-sass" viewBox="0 0 32 32">
<title>sass</title>
<path d="M31.466 11.734h-5.867v-4.8c0-0.006-0.001-0.011-0.001-0.017-0-0.007-0.001-0.014-0.001-0.021-0.002-0.021-0.004-0.043-0.008-0.063-0-0.001-0-0.003-0.001-0.004-0.005-0.024-0.011-0.046-0.019-0.068-0.001-0.004-0.003-0.008-0.004-0.012-0.008-0.022-0.017-0.043-0.028-0.063-0-0.001-0-0.001-0.001-0.002-0.011-0.021-0.024-0.042-0.039-0.061-0.002-0.003-0.005-0.007-0.008-0.010-0.015-0.020-0.032-0.040-0.050-0.058l-6.398-6.398c-0.016-0.016-0.034-0.031-0.053-0.045-0.005-0.004-0.010-0.008-0.016-0.012-0.018-0.013-0.036-0.025-0.056-0.035-0.005-0.003-0.010-0.005-0.015-0.007-0.015-0.008-0.031-0.015-0.048-0.021-0.008-0.003-0.015-0.006-0.023-0.008-0.018-0.006-0.037-0.011-0.056-0.016-0.009-0.002-0.018-0.003-0.026-0.005-0.014-0.002-0.029-0.004-0.043-0.005-0.010-0.001-0.021-0.001-0.031-0.002-0.004-0-0.008-0.001-0.012-0.001h-18.133c-0.294 0-0.533 0.239-0.533 0.533v30.933c0 0.294 0.239 0.533 0.533 0.533h24.533c0.295 0 0.533-0.239 0.533-0.533v-5.867h5.867c0.295 0 0.533-0.239 0.533-0.533v-12.8c0-0.294-0.238-0.533-0.533-0.533zM19.2 1.821l4.579 4.579h-4.579v-4.579zM24.533 30.933h-23.466v-29.866h17.066v5.867c0 0.294 0.239 0.533 0.533 0.533h5.867v4.267h-21.333c-0.294 0-0.533 0.239-0.533 0.533v12.8c0 0.294 0.239 0.533 0.533 0.533h21.333v5.333zM30.933 24.533h-27.2v-11.733h27.2v11.733z"></path>
<path d="M7.467 14.934c0.882 0 1.6 0.718 1.6 1.6 0 0.294 0.239 0.533 0.533 0.533s0.533-0.239 0.533-0.533c0-1.47-1.196-2.667-2.667-2.667s-2.667 1.196-2.667 2.667c0 1.47 1.196 2.667 2.667 2.667 0.882 0 1.6 0.718 1.6 1.6s-0.718 1.6-1.6 1.6-1.6-0.718-1.6-1.6c0-0.294-0.239-0.533-0.533-0.533s-0.533 0.239-0.533 0.533c0 1.47 1.196 2.667 2.667 2.667s2.667-1.196 2.667-2.667c0-1.47-1.196-2.667-2.667-2.667-0.882 0-1.6-0.718-1.6-1.6s0.718-1.6 1.6-1.6z"></path>
<path d="M20.8 14.934c0.882 0 1.6 0.718 1.6 1.6 0 0.294 0.239 0.533 0.533 0.533s0.533-0.239 0.533-0.533c0-1.47-1.196-2.667-2.667-2.667s-2.667 1.196-2.667 2.667c0 1.47 1.196 2.667 2.667 2.667 0.882 0 1.6 0.718 1.6 1.6s-0.718 1.6-1.6 1.6c-0.882 0-1.6-0.718-1.6-1.6 0-0.294-0.239-0.533-0.533-0.533s-0.533 0.239-0.533 0.533c0 1.47 1.196 2.667 2.667 2.667s2.667-1.196 2.667-2.667c0-1.47-1.196-2.667-2.667-2.667-0.882 0-1.6-0.718-1.6-1.6s0.718-1.6 1.6-1.6z"></path>
<path d="M27.2 19.2c0.882 0 1.6 0.718 1.6 1.6s-0.718 1.6-1.6 1.6-1.6-0.718-1.6-1.6c0-0.294-0.238-0.533-0.533-0.533s-0.533 0.239-0.533 0.533c0 1.47 1.196 2.667 2.667 2.667s2.667-1.196 2.667-2.667c0-1.47-1.196-2.667-2.667-2.667-0.882 0-1.6-0.718-1.6-1.6s0.718-1.6 1.6-1.6 1.6 0.718 1.6 1.6c0 0.294 0.238 0.533 0.533 0.533s0.533-0.239 0.533-0.533c0-1.47-1.196-2.667-2.667-2.667s-2.667 1.196-2.667 2.667 1.196 2.667 2.667 2.667z"></path>
<path d="M14.366 14.213c-0.081-0.213-0.286-0.356-0.515-0.346-0.228 0.006-0.426 0.156-0.494 0.374l-2.667 8.533c-0.087 0.282 0.069 0.58 0.35 0.668 0.278 0.086 0.58-0.069 0.668-0.35l0.883-2.826h2.904l1.070 2.854c0.081 0.214 0.284 0.346 0.5 0.346 0.062 0 0.125-0.011 0.187-0.034 0.276-0.103 0.415-0.411 0.313-0.687l-3.2-8.533zM12.926 19.2l0.987-3.159 1.184 3.159h-2.171z"></path>
</symbol>
<symbol id="icon-twitter" viewBox="0 0 32 32">
<title>twitter</title>
<path d="M32 6.079c-1.178 0.522-2.442 0.876-3.769 1.034 1.356-0.812 2.394-2.1 2.885-3.629-1.272 0.752-2.675 1.298-4.171 1.594-1.198-1.278-2.901-2.074-4.791-2.074-3.625 0-6.565 2.939-6.565 6.563 0 0.514 0.058 1.016 0.17 1.496-5.455-0.274-10.292-2.887-13.529-6.859-0.566 0.968-0.888 2.096-0.888 3.299 0 2.278 1.16 4.287 2.919 5.463-1.076-0.036-2.088-0.332-2.973-0.824v0.082c0 3.179 2.264 5.833 5.265 6.437-0.55 0.148-1.13 0.23-1.73 0.23-0.424 0-0.834-0.042-1.236-0.122 0.836 2.61 3.259 4.507 6.131 4.559-2.246 1.76-5.077 2.805-8.152 2.805-0.53 0-1.052-0.032-1.566-0.090 2.905 1.866 6.355 2.953 10.062 2.953 12.076 0 18.677-10.002 18.677-18.677l-0.022-0.85c1.29-0.92 2.405-2.076 3.283-3.391z"></path>
</symbol>
</defs>
</svg>
