<svg width="16" height="16" xmlns="http://www.w3.org/2000/svg"><path fill="#fff" d="M2.396 3.393c.2 1.228.4 1.511.4 2.739 0 .756-1.5 1.417-1.5 1.417v.944s1.5.662 1.5 1.417c0 1.228-.2 1.512-.4 2.74-.3 1.983.8 2.928 1.8 2.928h2.1v-1.89s-1.8.19-1.8-.944c0-.85.2-.85.4-2.74.1-.85-.5-1.51-1.1-1.983.6-.472 1.2-1.039 1.1-1.889-.3-1.89-.4-1.89-.4-2.74 0-1.133 1.8-1.038 1.8-1.038V.464h-2.1c-1.1 0-2.1.945-1.8 2.929zm10.879 9.257c-.2-1.229-.4-1.512-.4-2.74 0-.755 1.5-1.417 1.5-1.417V7.55s-1.5-.661-1.5-1.417c0-1.228.2-1.511.4-2.74.3-1.983-.8-2.927-1.8-2.927h-2.1v1.889s1.8-.19 1.8.944c0 .85-.2.85-.4 2.74-.1.85.5 1.51 1.1 1.983-.6.472-1.2 1.04-1.1 1.89.3 1.888.4 1.888.4 2.738 0 1.134-1.8 1.04-1.8 1.04v1.889h2.1c1.1 0 2.1-.945 1.8-2.929z"/></svg>